<?xml version="1.0" encoding="utf-8"?>
<!-- Generator: Adobe Illustrator 23.0.1, SVG Export Plug-In . SVG Version: 6.00 Build 0)  -->
<svg version="1.1" id="Capa_1" xmlns="http://www.w3.org/2000/svg" xmlns:xlink="http://www.w3.org/1999/xlink" x="0px" y="0px"
	 viewBox="0 0 402.2 420.3" style="enable-background:new 0 0 402.2 420.3;" xml:space="preserve">
<style type="text/css">
	.st0{fill:#BC837E;}
	.st1{fill:#BE8792;}
	.st2{fill:none;stroke:#BE8792;stroke-width:4;stroke-miterlimit:10;}
</style>
<g>
	
		<rect x="462.7" y="320.6" transform="matrix(6.123234e-17 -1 1 6.123234e-17 142.6526 785.9944)" class="st0" width="3.2" height="2.1"/>
	<g>
		<g>
			<path class="st1" d="M164.5,124.5L213,261l0.5,0l47.3-137.2l68.7-0.5l0,3.8l-25.3,0.2l1.4,188l25.3-0.2l0,3.8l-90.1,0.7l0-3.8
				l25-0.2l-1.4-188l-0.5,0L197.8,320l-4.4,0l-69.3-191.3l-0.5,0l1.4,188l25.3-0.2l0,3.8l-55,0.4l0-3.8l25.3-0.2l-1.4-188l-25.3,0.2
				l0-3.8L164.5,124.5z"/>
		</g>
		<path class="st2" d="M385.7,223.7c-0.5,7.5-1.4,15.1-2.9,22.7c-19,99.8-115.2,165.3-215,146.3C68,373.7,2.4,277.4,21.4,177.7
			C33.6,113.3,78.1,63.2,134.8,40.8"/>
		<g>
			<path class="st1" d="M160.9,27.3c0-0.4,0.3-0.8,0.7-0.9l0.2,0c0.3,0,0.6,0.1,0.8,0.4L172,38l6.9-12.9c0.2-0.3,0.4-0.5,0.7-0.5
				l0.2,0c0.4,0,0.8,0.3,0.9,0.7l2.1,19.7c0,0.4-0.3,0.8-0.7,0.9c-0.4,0-0.8-0.3-0.9-0.7l-1.9-17.6l-6.5,12
				c-0.2,0.3-0.3,0.4-0.6,0.5c-0.3,0-0.5-0.1-0.7-0.3l-8.9-10.4l1.9,17.6c0,0.4-0.3,0.8-0.7,0.8c-0.4,0-0.8-0.3-0.8-0.7L160.9,27.3z
				"/>
			<path class="st1" d="M187.2,44.4l9.5-19.3c0.2-0.4,0.5-0.7,1.1-0.7l0.1,0c0.5,0,0.8,0.3,1,0.8l8.5,19.7c0.1,0.2,0.1,0.3,0.1,0.5
				c0,0.4-0.4,0.7-0.8,0.7c-0.4,0-0.6-0.3-0.8-0.6l-2.3-5.5l-12.5-0.3l-2.6,5.4c-0.2,0.4-0.4,0.6-0.8,0.6c-0.4,0-0.7-0.3-0.7-0.7
				C187,44.7,187.1,44.6,187.2,44.4z M203,38.5l-5.2-12.4l-5.9,12.1L203,38.5z"/>
			<path class="st1" d="M214.7,26.3c0.1-0.4,0.5-0.7,0.9-0.7l8,1.2c2.6,0.4,4.5,1.5,5.6,2.9c0.8,1.1,1.2,2.6,1,4.1l0,0.1
				c-0.5,3.5-3.4,5.1-7,5.1l4.8,8.6c0.1,0.2,0.2,0.4,0.2,0.6c-0.1,0.4-0.5,0.7-0.9,0.7c-0.3,0-0.5-0.3-0.6-0.5l-5.2-9.3l-6.8-1
				l-1.2,8c-0.1,0.4-0.5,0.7-0.9,0.7c-0.4-0.1-0.7-0.5-0.7-0.9L214.7,26.3z M221.8,37.7c3.5,0.5,6.4-0.9,6.8-3.9l0-0.1
				c0.4-2.8-1.5-4.9-5.3-5.5l-7.1-1.1l-1.4,9.4L221.8,37.7z"/>
			<path class="st1" d="M237.6,30.2c0.1-0.4,0.5-0.7,0.9-0.6c0.4,0.1,0.7,0.5,0.6,0.9l-4.5,19.3c-0.1,0.4-0.5,0.7-0.9,0.6
				c-0.4-0.1-0.7-0.5-0.6-0.9L237.6,30.2z"/>
			<path class="st1" d="M246.8,32.3c0.1-0.4,0.6-0.6,1-0.5l0.2,0.1c0.3,0.1,0.5,0.3,0.6,0.7l8,21.6l5.5-17c0.1-0.4,0.5-0.6,1-0.5
				c0.4,0.1,0.6,0.5,0.5,1l-6.1,19c-0.1,0.3-0.5,0.5-0.8,0.4l-0.1,0c-0.3-0.1-0.5-0.4-0.6-0.7l-8.2-22l-5.6,17.3
				c-0.1,0.4-0.5,0.6-1,0.5c-0.4-0.1-0.6-0.5-0.5-1L246.8,32.3z"/>
			<path class="st1" d="M261.7,57.8l16.5-13.9c0.4-0.3,0.8-0.5,1.3-0.2l0.1,0c0.5,0.2,0.6,0.6,0.6,1.1L280,66.3c0,0.2,0,0.4-0.1,0.5
				c-0.2,0.4-0.6,0.5-1,0.3c-0.3-0.2-0.5-0.5-0.5-0.9l0.1-6L267.2,55l-4.6,3.9c-0.3,0.3-0.6,0.4-0.9,0.2c-0.4-0.2-0.5-0.6-0.4-0.9
				C261.4,58,261.5,57.9,261.7,57.8z M278.5,58.7l0.2-13.4L268.4,54L278.5,58.7z"/>
			<path class="st1" d="M302.7,57.3c0.2-0.3,0.8-0.4,1.1-0.2l0.1,0.1c0.3,0.2,0.4,0.5,0.4,0.8L304,72.7l13.8-5.1
				c0.3-0.1,0.6-0.1,0.9,0.1l0.1,0.1c0.3,0.2,0.4,0.8,0.2,1.1L307.5,85c-0.2,0.3-0.8,0.4-1.1,0.2c-0.3-0.2-0.4-0.8-0.2-1.1
				l10.3-14.4l-12.9,4.7c-0.3,0.1-0.5,0.1-0.8-0.1c-0.2-0.2-0.3-0.4-0.3-0.7l0.2-13.7l-10.3,14.4c-0.2,0.3-0.7,0.4-1.1,0.2
				c-0.3-0.2-0.4-0.7-0.2-1.1L302.7,57.3z"/>
			<path class="st1" d="M317.9,80.8L317.9,80.8c4-4.2,10.6-5.1,15.3-0.7c4.7,4.4,4.2,11,0.3,15.2l0,0c-4,4.2-10.6,5-15.3,0.7
				C313.5,91.6,314,85,317.9,80.8z M332.2,94.3L332.2,94.3c3.6-3.8,3.8-9.6,0-13.2c-3.8-3.6-9.4-3.1-13,0.7l0,0
				c-3.6,3.8-3.8,9.5,0.1,13.1C323,98.6,328.6,98.1,332.2,94.3z"/>
			<path class="st1" d="M345.2,93.7c0.3-0.3,0.8-0.2,1.1,0.1l0.2,0.2c0.2,0.3,0.2,0.6,0.1,0.9l-5,22.5l13.8-11.3
				c0.3-0.3,0.8-0.2,1.1,0.1c0.3,0.3,0.2,0.8-0.1,1.1l-15.4,12.6c-0.3,0.2-0.7,0.2-0.9-0.1l-0.1-0.1c-0.2-0.2-0.2-0.6-0.1-0.9
				l5.1-22.9l-14.1,11.5c-0.3,0.3-0.8,0.2-1.1-0.1c-0.3-0.3-0.2-0.8,0.1-1.1L345.2,93.7z"/>
			<path class="st1" d="M363.4,119.2l-3.6-5.7c-0.2-0.3-0.1-0.8,0.2-1c0.3-0.2,0.8-0.1,1,0.2l8.1,12.7c0.2,0.3,0.1,0.8-0.2,1
				c-0.3,0.2-0.8,0.1-1-0.2l-3.6-5.7l-16,10.2c-0.4,0.2-0.9,0.1-1.1-0.2c-0.2-0.4-0.1-0.9,0.2-1.1L363.4,119.2z"/>
			<path class="st1" d="M354.4,140.7l17.5-8.7c0.4-0.2,0.9,0,1.1,0.4l6.1,12.2c0.2,0.4,0,0.8-0.3,1c-0.4,0.2-0.8,0-1-0.3l-5.7-11.5
				l-7.4,3.7l5.1,10.3c0.2,0.4,0,0.8-0.3,1c-0.4,0.2-0.8,0-1-0.3l-5.1-10.3l-7.6,3.8l5.8,11.6c0.2,0.4,0,0.8-0.3,1
				c-0.4,0.2-0.8,0-1-0.3l-6.2-12.3C353.8,141.4,354,140.9,354.4,140.7z"/>
			<path class="st1" d="M381.3,151.8c0.4-0.1,0.9,0.1,1,0.5l2.8,7.6c0.9,2.4,0.8,4.7,0.1,6.3c-0.6,1.3-1.7,2.3-3.1,2.9l-0.1,0
				c-3.3,1.2-6.1-0.6-7.8-3.7l-5.2,8.3c-0.1,0.2-0.3,0.4-0.4,0.4c-0.4,0.1-0.9-0.1-1-0.5c-0.1-0.3,0-0.5,0.2-0.8l5.7-9l-2.4-6.5
				l-7.6,2.8c-0.4,0.1-0.9-0.1-1-0.5c-0.1-0.4,0.1-0.9,0.5-1L381.3,151.8z M374.7,163.5c1.2,3.3,3.8,5.2,6.7,4.1l0.1,0
				c2.7-1,3.6-3.7,2.3-7.3l-2.5-6.8l-8.9,3.3L374.7,163.5z"/>
			<path class="st1" d="M379.3,175.5L379.3,175.5c5.7-1.3,11.7,1.7,13.1,7.9c1.4,6.2-2.6,11.5-8.2,12.8l-0.1,0
				c-5.6,1.3-11.6-1.7-13-7.9C369.6,182,373.7,176.8,379.3,175.5z M383.7,194.7L383.7,194.7c5.2-1.2,8.5-5.9,7.3-10.9
				c-1.2-5.1-6.1-7.8-11.2-6.6l-0.1,0c-5.1,1.2-8.4,5.8-7.3,10.9C373.6,193.1,378.6,195.8,383.7,194.7z"/>
		</g>
		<g>
			<g>
				<g>
					<path class="st1" d="M137.6,257.1c-0.2,0.1-0.4,0.3-0.6,0.5C137.2,257.4,137.4,257.2,137.6,257.1z"/>
				</g>
				<g>
					<path class="st1" d="M118.3,247.7c-0.1,0.1-0.1,0.1-0.2,0.2C118.2,247.9,118.2,247.8,118.3,247.7z"/>
				</g>
				<g>
					<path class="st1" d="M126.3,224.7c-0.2,0.2-0.4,0.5-0.6,0.8C125.9,225.2,126.1,225,126.3,224.7z"/>
				</g>
				<g>
					<path class="st1" d="M125.6,225.6c-0.1,0.1-0.2,0.3-0.3,0.4C125.5,225.9,125.5,225.7,125.6,225.6z"/>
				</g>
				<g>
					<path class="st1" d="M118.7,247.3c-0.1,0.1-0.1,0.1-0.2,0.2C118.6,247.4,118.7,247.3,118.7,247.3z"/>
				</g>
				<g>
					<path class="st1" d="M118.5,247.5c-0.1,0.1-0.1,0.1-0.2,0.2C118.4,247.6,118.5,247.6,118.5,247.5z"/>
				</g>
				<g>
					<path class="st1" d="M118,248c-0.1,0.1-0.1,0.1-0.2,0.2C117.9,248.2,118,248.1,118,248z"/>
				</g>
				<g>
					<path class="st1" d="M128,242.7c-1.2-3.2-3.3-5.5-2.9-9.2c0.3-3.1,1.3-6.1,1.5-9.2c-0.1,0.1-0.2,0.2-0.3,0.3
						c0.2-0.3,0.4-0.5,0.6-0.8c0.4-0.5,0.7-0.8,0.7-0.8s0.2,0.3,0.6,0.8c0.3,0.5,0.8,1.3,1.3,2.2c0.9,1.9,1.9,4.3,2,6.9
						c0.1,2.7-0.8,5.2-1.6,7.1c-0.4,1-0.8,1.8-1.1,2.4c-0.2,0.4-0.4,0.7-0.5,0.8c0,0,0.1-0.1,0.1-0.2
						C128.3,243.1,128.1,242.9,128,242.7z"/>
				</g>
				<g>
					<path class="st1" d="M117.8,248.3c-0.1,0.1-0.1,0.2-0.2,0.3C117.7,248.5,117.7,248.4,117.8,248.3z"/>
				</g>
				<g>
					<path class="st1" d="M132.1,262.1c-1.6,1-4.4,2.1-6,0.8c-0.9-0.7-1.1-1.6-0.8-2.5c0,0,0,0,0,0c0,0,0,0.1,0,0.1
						c0.3-0.8,0.7-1.7,1.3-2.6c0.6-0.8,1.4-1.6,2.3-2.1c1-0.5,2-0.7,3-0.7c1,0,2,0.2,2.8,0.4c0.8,0.3,1.5,0.6,1.9,0.9
						c0.5,0.3,0.7,0.5,0.7,0.5s-0.1,0.3-0.3,0.8c0-0.1,0.1-0.1,0.1-0.2C135.3,258.9,134.1,260.9,132.1,262.1z"/>
				</g>
				<g>
					<path class="st1" d="M133.9,242.9c-0.6,0.2-1.1-0.1-1.4-0.5c0,0.2,0,0.4,0,0.5c0-0.7,0.1-1.6,0.4-2.6c0.3-1.1,0.8-2.4,1.4-3.6
						c0.6-1.2,1.2-2.3,1.9-3.2c0.7-0.9,1.4-1.7,2.2-2.5c0.4-0.4,0.8-0.8,1.2-1.2c0.4-0.4,0.7-0.7,1.1-1.1c0.4-0.4,0.7-0.7,1-1
						c0.3-0.3,0.6-0.6,0.8-0.8c0.5-0.5,0.7-0.8,0.7-0.8s0.2,0.3,0.6,0.9c0.1,0.2,0.2,0.5,0.4,0.8c0-0.1-0.1-0.2-0.1-0.3
						C145.6,233.8,139.5,241.2,133.9,242.9z"/>
				</g>
				<g>
					<path class="st1" d="M144.2,228.2c0-0.1-0.1-0.2-0.1-0.3C144.2,227.9,144.2,228.1,144.2,228.2z"/>
				</g>
				<g>
					<path class="st1" d="M120.6,258.3c-5.1-1.8-2.1-7.7-1.3-11.5c-0.1,0.1-0.3,0.3-0.5,0.5c0.4-0.5,0.8-0.7,0.8-0.7
						s1.1,0.6,2.2,1.6c1.1,1,2.3,2.6,2.3,4.4c0,1.8-1,3.5-2.1,4.6c-0.6,0.7-1.3,1.1-1.7,1.4c0.1-0.1,0.3-0.2,0.5-0.3
						C120.7,258.3,120.6,258.3,120.6,258.3z"/>
				</g>
				<g>
					<path class="st1" d="M135.9,259.5c-0.4,0.7-0.9,1.5-1.4,2.2c-0.1,0.1-0.2,0.2-0.2,0.3c-0.5,0.6-1.1,1.1-1.7,1.4
						c-0.8,0.4-1.6,0.6-2.5,0.7c-0.9,0.1-1.7,0-2.5,0c-0.8-0.1-1.5-0.2-2-0.3c-0.3-0.1-0.6-0.1-0.7-0.2c-1.4,1.1-2.9,2.5-3.9,3.7
						c0,0-0.1,0.1-0.1,0.1c-0.3,0.9-0.7,1.8-1,2.6c-0.9,2.6-1.5,4.6-2,6.1c-0.1-1.6-0.3-3.3-0.5-5c0.2-0.5,0.4-1.1,0.6-1.7
						c0.2-0.4,0.3-0.9,0.5-1.4c0-0.5,0.1-1.2,0.3-2.3c0.3-1.9,0.6-4.5,0.8-6.7c-0.3-0.3-1.1-0.9-1.8-1.7c-1-1.1-2-2.6-2.1-4.2
						c0-1.6,0.9-3.2,1.9-4.4c0.1-0.1,0.1-0.2,0.2-0.3c0,0,0-0.1,0.1-0.1c0.1-0.1,0.1-0.1,0.2-0.2c0,0,0,0,0.1-0.1
						c0.1-0.1,0.1-0.2,0.2-0.2c0,0,0,0,0.1-0.1c0.1-0.1,0.1-0.1,0.2-0.2c0,0,0,0,0.1-0.1c0.1-0.1,0.1-0.1,0.2-0.2c0,0,0,0,0,0
						c0.2-0.2,0.4-0.4,0.5-0.5c-0.8,3.8-3.7,9.7,1.3,11.5c0.1,0,0.1,0,0.1,0c-0.2,0.1-0.3,0.2-0.5,0.3c0,0,0,0,0,0.1
						c0,1.7-0.1,3.8-0.3,5.5c0.7-1.7,1.6-3.5,2.5-5.3c1.4-2.8,3.1-5.6,4.8-8.1c0-0.5,0-1.4,0.1-2.9c0.1-1.4,0.1-3.3,0.1-5.1
						c-0.5-0.4-1.1-1.1-1.7-1.9c-1.3-1.7-2.6-4.3-2.6-7.3c-0.1-3,1.1-5.7,2.2-7.5c0.1-0.2,0.2-0.3,0.3-0.4c0,0,0-0.1,0.1-0.1
						c0.2-0.3,0.4-0.5,0.6-0.8c0,0,0,0,0-0.1c0.1-0.1,0.2-0.2,0.3-0.3c-0.1,3.1-1.2,6.1-1.5,9.2c-0.3,3.7,1.7,6,2.9,9.2
						c0.1,0.2,0.2,0.4,0.4,0.6c0,0.1-0.1,0.1-0.1,0.2c0.1,1.6,0.1,3.2,0,4.4c0,0.6-0.1,1.1-0.1,1.5c0.1-0.2,0.3-0.4,0.4-0.6
						c1.4-1.9,2.7-3.6,3.9-5.1c0-0.2,0-0.4,0-0.6c0-0.1,0-0.1,0-0.2c0-0.2,0-0.3,0-0.5c0.4,0.4,0.9,0.7,1.4,0.5
						c5.6-1.7,11.7-9.2,10-15.4c0,0.1,0.1,0.2,0.1,0.3c0,0,0,0,0,0c0,0.1,0.1,0.2,0.1,0.3c0.2,0.4,0.3,1,0.4,1.5
						c0.1,0.6,0.2,1.2,0.2,1.9c0,0.7,0,1.4-0.2,2.2c-0.3,1.5-0.9,3.2-1.9,4.7c-0.5,0.7-1.1,1.4-1.7,1.9c-0.6,0.5-1.2,0.9-1.8,1.3
						c-1.2,0.7-2.3,1.1-3.3,1.4c-0.8,0.3-1.6,0.5-2.3,0.7c-1.2,1.6-2.6,3.6-4,5.8c-2,3.1-4,6.6-5.7,10.2c-0.9,1.8-1.6,3.5-2.3,5.2
						c0.9-0.8,1.9-1.6,3-2.3c0,0,0-0.1,0-0.1c0.1-0.5,0.2-1.3,0.5-2.1c0,0,0-0.1,0-0.1c0,0,0,0,0,0c-0.2,0.9-0.1,1.8,0.8,2.5
						c1.7,1.3,4.4,0.2,6-0.8c2-1.2,3.2-3.2,4.9-4.7c0,0.1-0.1,0.1-0.1,0.2c0,0.1-0.1,0.1-0.1,0.2
						C136.6,258.3,136.3,258.9,135.9,259.5z"/>
				</g>
				<g>
					<path class="st1" d="M72.1,277.9C72.1,277.9,72.1,277.9,72.1,277.9C72.1,277.9,72.1,277.9,72.1,277.9z"/>
				</g>
				<g>
					<path class="st1" d="M106,279.9c0,0,0-0.1-0.1-0.1C106,279.8,106,279.9,106,279.9z"/>
				</g>
				<g>
					<path class="st1" d="M82.4,289.3C82.5,289.3,82.5,289.3,82.4,289.3C82.5,289.3,82.5,289.3,82.4,289.3z"/>
				</g>
				<g>
					<path class="st1" d="M72.2,278C72.2,278,72.2,278,72.2,278C72.2,278,72.2,278,72.2,278z"/>
				</g>
				<g>
					<path class="st1" d="M71.6,277.6C71.6,277.6,71.7,277.6,71.6,277.6C71.6,277.6,71.6,277.6,71.6,277.6c0,0,0.2-0.3,0.6-0.8
						c0.4-0.5,0.9-1.2,1.5-1.8c0.6-0.7,1.3-1.5,2.1-2.2c0.8-0.7,1.9-1.4,3.2-1.9c1.3-0.5,2.7-0.6,4.1-0.5c1.3,0.1,2.6,0.5,3.5,1
						c1,0.5,1.6,1.1,2.1,1.6c0.1,0.1,0.1,0.1,0.2,0.2c0.1,0,0.1,0,0.2,0c0,0-0.1,0-0.1,0C84.8,278,77.4,279.4,71.6,277.6z"/>
				</g>
				<g>
					<path class="st1" d="M102.7,245.8C102.7,245.8,102.7,245.8,102.7,245.8C102.7,245.8,102.7,245.8,102.7,245.8z"/>
				</g>
				<g>
					<path class="st1" d="M108.4,256.3c0.6,2.1,0.4,4.3,0,6.5c-0.3,1.9-1.9,5.2-1,7c0.3,0.6,0.2,1.1-0.1,1.5
						c-0.1-0.1-0.3-0.2-0.4-0.3c-0.4-0.3-0.7-0.7-1.2-1.2c-0.4-0.5-0.8-1.1-1.2-1.9c-0.4-0.7-0.7-1.5-1-2.4
						c-0.3-0.8-0.5-1.7-0.8-2.6c-0.2-0.9-0.4-1.7-0.6-2.4c-0.1-0.4-0.2-0.9-0.3-1.3c-0.1-0.4-0.2-0.9-0.3-1.3
						c-0.2-0.9-0.4-1.7-0.5-2.6c-0.2-0.8-0.3-1.5-0.4-2.3c-0.3-1.5-0.8-3.2-1.1-4.7c-0.3-1.5-0.4-2.8-0.3-3.7c0-0.4,0.1-0.8,0.1-1
						c0-0.2,0.1-0.4,0.1-0.4s0.1,0.1,0.3,0.2c0.2,0.1,0.4,0.3,0.8,0.6c0.1,0.1,0.2,0.1,0.3,0.2C103.1,248.4,107.1,251.5,108.4,256.3
						z"/>
				</g>
				<g>
					<path class="st1" d="M103.9,280.3c-0.3,0.1-0.6,0.1-0.9,0c-1.7,0.1-3.2-0.5-4.8-0.3c-2.4,0.3-4.4,1.7-6.3,3.2
						c-1.4,1.2-2.7,2.5-4.2,3.6c-1.5,1.1-3.1,1.6-4.8,2.3c-0.1,0.1-0.3,0.2-0.4,0.3c-0.1,0-0.1,0-0.1,0s0.2-0.4,0.6-1.1
						c0.4-0.7,0.9-1.7,1.5-2.9c0.6-1.2,1.4-2.5,2.5-3.9c1.1-1.4,2.5-2.8,4.5-3.9c1-0.6,2-1,3-1.3c1.1-0.3,2.1-0.5,3.2-0.5
						c2.1-0.1,4,0.5,5.3,1.2c0.7,0.4,1.2,0.8,1.7,1.2c0.4,0.4,0.8,0.8,1,1.2c0.2,0.2,0.3,0.4,0.4,0.6
						C105.5,280.4,104.6,280.6,103.9,280.3z"/>
				</g>
				<g>
					<path class="st1" d="M83,289.3C83,289.3,83,289.3,83,289.3C83,289.3,83,289.3,83,289.3z"/>
				</g>
				<g>
					<path class="st1" d="M83.2,289.3C83.3,289.3,83.3,289.3,83.2,289.3C83.3,289.3,83.3,289.3,83.2,289.3z"/>
				</g>
				<g>
					<path class="st1" d="M82.8,289.3C82.8,289.3,82.8,289.3,82.8,289.3C82.8,289.3,82.8,289.3,82.8,289.3z"/>
				</g>
				<g>
					<path class="st1" d="M82.6,289.3C82.6,289.3,82.6,289.3,82.6,289.3C82.6,289.3,82.6,289.3,82.6,289.3z"/>
				</g>
				<g>
					<path class="st1" d="M115.1,297.7c-0.1-0.3-0.1-0.7-0.1-1.2c-0.1-0.5-0.2-1.1-0.3-1.9c-0.3-1.5-0.6-3.6-1.7-6.3
						c-0.1-0.3-0.3-0.7-0.4-1c-0.2-0.3-0.3-0.7-0.5-1.1c-0.1-0.2-0.2-0.4-0.3-0.6c-0.1-0.2-0.2-0.4-0.3-0.6
						c-0.2-0.4-0.4-0.8-0.6-1.2c-0.4-0.7-0.9-1.5-1.4-2.3c-0.3-0.1-0.7-0.1-1.1-0.3c-1.3-0.3-3.2-0.6-4.7-0.8c0,0-0.1,0-0.1,0
						c-0.4,0.1-0.9,0.2-1.4,0.4c-1.1,0.4-2.2,0.9-3.2,1.6c-0.6,0.4-1.2,0.7-1.7,1c-0.6,0.4-1.2,0.8-1.9,1.2
						c-1.3,0.8-2.8,1.6-4.3,2.2c-1.5,0.7-3,1.2-4.3,1.6c-1.3,0.4-2.5,0.5-3.3,0.6c-0.1,0-0.2,0-0.3,0c0,0,0,0-0.1,0
						c-0.1,0-0.1,0-0.2,0c0,0,0,0,0,0c-0.1,0-0.1,0-0.2,0c0,0,0,0,0,0c0,0-0.1,0-0.1,0c0,0,0,0,0,0c0,0-0.1,0-0.1,0c0,0-0.1,0-0.1,0
						c0,0,0,0,0,0h0c0.2-0.1,0.3-0.2,0.4-0.3c1.7-0.6,3.3-1.2,4.8-2.3c1.5-1.1,2.8-2.4,4.2-3.6c1.8-1.5,3.9-2.9,6.3-3.2
						c1.7-0.2,3.2,0.4,4.8,0.3c0.3,0.1,0.6,0.1,0.9,0c0.7,0.3,1.6,0.1,2.1-0.5l0,0c0,0,0,0,0,0c0,0,0,0.1,0.1,0.1c0,0,0,0.1,0.1,0.1
						c0,0,0,0,0,0c0.9,0.1,1.8,0.2,2.6,0.4c0,0,0.1,0,0.1,0c-0.4-0.5-0.8-1.1-1.2-1.7c-1.7-2.1-3.8-4.3-6.2-6.3
						c-0.5,0.1-1.5,0.3-3.7,0.4c-2.4,0.2-5.7,0.5-8.4,1c0,0-0.1,0.1-0.2,0.1c-0.1,0.1-0.3,0.2-0.6,0.4c-0.5,0.3-1.1,0.8-1.8,1.3
						c-0.7,0.5-1.4,1.2-2.2,1.7c-0.8,0.6-1.7,1.1-2.8,1.5c-1.1,0.4-2.3,0.6-3.5,0.6c-1.2,0-2.4-0.1-3.4-0.4c-1-0.3-1.8-0.7-2.3-1
						c-0.1,0-0.1-0.1-0.2-0.1c0,0,0,0,0,0c0,0-0.1-0.1-0.1-0.1c0,0,0,0,0,0c-0.2-0.1-0.3-0.2-0.4-0.3c0,0,0,0,0,0
						c5.8,1.8,13.2,0.4,17.3-4.4c0,0,0.1,0,0.1,0c2.7-0.6,6.1-1.1,8.5-1.2c1.4-0.1,2.4-0.1,3-0.1c-0.1-0.1-0.2-0.2-0.4-0.3
						c-2.9-2.3-6.1-4.4-9.4-6.5c-1.8-1.1-3.6-2.1-5.4-3.2c0-0.1,0.1-0.2,0.1-0.3c0.1-0.5,0.2-1,0.3-1.6c2,1.1,4,2.3,6,3.4
						c3.4,2,6.8,4.2,9.7,6.5c2.5,2,4.7,4.1,6.6,6.3c0-0.2-0.1-0.5-0.1-0.8c-0.2-1.2-0.3-2.7-0.5-4.2c0,0,0,0-0.1,0l0,0
						c0.3-0.4,0.3-0.9,0.1-1.5c-0.9-1.8,0.7-5,1-7c0.4-2.2,0.5-4.4,0-6.5c-1.3-4.8-5.3-7.8-7.7-11.9c0,0,0,0,0,0
						c0.5,0.4,1.2,0.9,2,1.5c0,0,0,0,0,0c0.1,0.1,0.3,0.2,0.4,0.3c1.1,0.8,2.5,1.9,3.8,3.5c0.7,0.8,1.3,1.9,1.7,2.9
						c0.5,1,0.9,2.1,1.1,3.3c0.1,0.6,0.2,1.1,0.3,1.7c0,0.3,0.1,0.6,0.1,0.8c0,0.3,0,0.5,0,0.9c0,1.2-0.1,2.3-0.2,3.3
						c-0.3,1.9-0.8,3.4-1.2,4.6c-0.2,0.6-0.3,1.2-0.4,1.7c-0.1,0.5-0.1,0.9-0.2,1.2c0.3,1.9,0.5,3.7,0.7,5.2
						c0.1,0.9,0.2,1.6,0.2,2.2c1.5,1.9,2.7,3.7,3.6,5.4c0.4,0.9,0.9,1.7,1.2,2.5c0.2,0.4,0.3,0.8,0.5,1.2c0.1,0.4,0.3,0.8,0.4,1.1
						c0.3,0.9,0.5,1.7,0.7,2.5c-0.1,2.9-0.2,5.5-0.3,8C115.2,298.2,115.1,298,115.1,297.7z"/>
				</g>
				<g>
					<path class="st1" d="M107.4,235.6c0.1-0.6,0.3-1.3,0.5-2c0.1,0.2,0.2,0.4,0.2,0.5c0.1,0.2,0.1,0.3,0.1,0.3s0.1-0.1,0.2-0.2
						c0.1-0.1,0.2-0.1,0.3-0.2c-0.2,0.6-0.3,1.3-0.4,1.8c-0.1,0.7-0.2,1.3-0.3,1.6c-0.2-0.5-0.5-1-0.7-1.5
						C107.4,235.8,107.4,235.7,107.4,235.6z"/>
				</g>
				<g>
					<path class="st1" d="M118.5,214c0-0.1,0-0.1-0.1-0.2C118.5,213.9,118.5,214,118.5,214z"/>
				</g>
				<g>
					<path class="st1" d="M107.4,229.3c0,0.3,0,0.6,0,0.9c0-1.3,0.2-2.9,0.6-4.4c0.4-1.6,1.1-3.1,2-4.5c0.8-1.4,1.8-2.5,2.6-3.4
						c0.9-1,1.7-1.8,2.5-2.6c0.4-0.4,0.7-0.8,1-1.1c0.3-0.4,0.6-0.7,0.8-1c0.2-0.3,0.4-0.5,0.5-0.7c0.1-0.2,0.2-0.3,0.2-0.3
						s0.1,0.1,0.2,0.2c0.1,0.2,0.3,0.4,0.5,0.7c0.1,0.1,0.1,0.2,0.2,0.3c0-0.1-0.1-0.2-0.1-0.2C118.8,219.9,114.9,230.7,107.4,229.3
						z"/>
				</g>
				<g>
					<path class="st1" d="M118.4,213.7c0-0.1-0.1-0.1-0.1-0.2C118.3,213.6,118.4,213.7,118.4,213.7z"/>
				</g>
				<g>
					<path class="st1" d="M75.8,210.4c0,0.1,0,0.2-0.1,0.3C75.8,210.5,75.8,210.5,75.8,210.4z"/>
				</g>
				<g>
					<path class="st1" d="M103.7,176.5c0-0.1-0.1-0.2-0.1-0.3C103.6,176.3,103.6,176.4,103.7,176.5z"/>
				</g>
				<g>
					<path class="st1" d="M101.6,184.9c-2,2.9-7.8,4.7-8.1,8.6c-0.1,0.8-0.6,1.3-1.2,1.4c-0.1-0.3-0.2-0.7-0.3-1.2
						c-0.1-0.5-0.2-1.1-0.2-1.8c0-1.3,0.2-2.9,0.7-4.5c0.5-1.6,1.3-3.1,2.3-4.4c0.9-1.3,1.9-2.2,2.9-3.1c0.5-0.4,0.9-0.8,1.4-1.2
						c0.4-0.4,0.8-0.7,1.2-1.1c0.4-0.4,0.7-0.7,1-1c0.3-0.3,0.6-0.6,0.8-0.9c0.2-0.3,0.4-0.5,0.5-0.7c0.1-0.2,0.2-0.2,0.2-0.2
						s0.1,0.1,0.2,0.2c0.1,0.2,0.3,0.4,0.5,0.7c0.1,0.1,0.1,0.2,0.2,0.3C103.8,179.2,103.4,182.3,101.6,184.9z"/>
				</g>
				<g>
					<path class="st1" d="M93.9,176.1c-1.1,2.3-2.5,4.2-4.7,5.5c-0.3,0.2-0.8,0.2-1.2,0.1c0,0.1,0,0.1,0.1,0.2
						c-0.2-0.5-0.4-1.2-0.5-2.1c-0.3-1.8-0.1-4.3,1.2-6.3c1.3-2,3.5-3.1,5.2-3.6c0.9-0.2,1.7-0.4,2.2-0.4c0.6,0,0.9,0,0.9,0
						s0,0.3,0.1,0.7c0,0-0.1,0.1-0.1,0.1C95.2,171.2,94.8,174.3,93.9,176.1z"/>
				</g>
				<g>
					<path class="st1" d="M84.6,183.2c0-0.2-0.1-0.5-0.1-0.7C84.5,182.8,84.6,183,84.6,183.2z"/>
				</g>
				<g>
					<path class="st1" d="M103.8,176.8c0,0,0-0.1,0-0.1C103.8,176.7,103.8,176.7,103.8,176.8z"/>
				</g>
				<g>
					<path class="st1" d="M81.9,170.3c0.2-3.1,0.5-6.1,1.3-9.1c0.8-3.1,2.3-6.1,2.6-9.3c0.3-2.6,0.2-5.3-0.4-7.9c0,0.1,0,0.2,0,0.3
						c0.1-0.3,0.1-0.6,0.2-0.8c0.2-1,0.3-1.6,0.3-1.6s0.4,0.4,1,1.3c0.1,0.2,0.3,0.5,0.5,0.8c0.2,0.3,0.3,0.6,0.5,1
						c0.3,0.7,0.7,1.5,0.9,2.4c0.1,0.5,0.3,1,0.4,1.5c0.1,0.5,0.2,1.1,0.3,1.6c0.2,1.1,0.2,2.3,0.3,3.6c0,1.2,0,2.6-0.2,3.9
						c-0.1,1.3-0.4,2.6-0.6,4c-0.3,1.3-0.6,2.6-1,3.7c-0.2,0.6-0.4,1.1-0.5,1.7c-0.2,0.6-0.4,1.1-0.6,1.6c-0.3,1-0.7,2-1.1,3
						c-0.2,0.5-0.3,0.9-0.5,1.4c-0.1,0.4-0.3,0.8-0.4,1.3c-0.3,0.8-0.5,1.6-0.7,2.3c-0.1,0.3-0.2,0.7-0.3,1c0,0.1,0,0.1-0.1,0.2
						c0,0.1,0,0.1,0,0.2c-0.2-0.1-0.3-0.2-0.4-0.4C81.9,175.4,81.7,173,81.9,170.3z"/>
				</g>
				<g>
					<path class="st1" d="M108.8,197c-3.8,4.9-6.9,9.7-9.2,15.5c0,0.1-0.1,0.2-0.1,0.3c0.1,0.1,0.1,0.2,0.2,0.3
						c-0.1-0.1-0.1-0.2-0.2-0.3c-0.2-0.4-0.4-0.9-0.7-1.4c-0.1-0.3-0.2-0.6-0.3-0.9c-0.1-0.3-0.2-0.7-0.3-1.1
						c-0.2-0.8-0.3-1.6-0.3-2.6c0-0.9,0-2,0.1-3c0.1-1.1,0.4-2.2,0.8-3.3c0.4-1.1,1-2.2,1.6-3.3c0.7-1.1,1.5-2,2.2-2.7
						c0.7-0.7,1.5-1.3,2.1-1.9c0.7-0.5,1.3-1,1.8-1.4c0.6-0.4,1.1-0.8,1.5-1.3c0.9-0.8,1.6-1.7,2.1-2.3c0.2-0.3,0.4-0.6,0.5-0.8
						c0.1-0.2,0.2-0.3,0.2-0.3s0,0.1,0.1,0.2C113,190.4,111.2,194,108.8,197z"/>
				</g>
				<g>
					<path class="st1" d="M97.2,170.3c0-0.1,0-0.2,0-0.2C97.2,170.2,97.2,170.3,97.2,170.3z"/>
				</g>
				<g>
					<path class="st1" d="M84.5,201.1c-1.6-1.2-2.7-2-4.8-2.1c-1.6-0.1-3.3,0.1-4.8-0.7c-1.5-0.8-2.2-2.3-3.2-3.5
						c-1-1.3-1.9-2.3-2.3-3.8c0,0.1,0,0.2,0,0.3c0-0.3,0-0.5,0-0.7c0-0.2,0.1-0.4,0.1-0.6c0.1-0.4,0.2-0.6,0.2-0.8
						c0.1-0.2,0.1-0.3,0.1-0.3s0.1,0.1,0.2,0.2c0.2,0.1,0.4,0.2,0.7,0.4c0.1,0.1,0.3,0.2,0.5,0.2c0.2,0.1,0.4,0.2,0.5,0.2
						c0.4,0.2,0.8,0.3,1.2,0.4c0.4,0.1,0.9,0.2,1.4,0.4c0.6,0.1,1.1,0.3,1.6,0.4c1.1,0.3,2.3,0.6,3.5,1.2c1.3,0.6,2.6,1.5,3.7,2.6
						c0.5,0.5,1,1.1,1.4,1.7c0.4,0.6,0.8,1.2,1,1.8c0.3,0.6,0.4,1.1,0.5,1.6c0.1,0.4,0.1,0.8,0.2,1.1
						C85.8,201.4,85.1,201.5,84.5,201.1z"/>
				</g>
				<g>
					<path class="st1" d="M92.6,219.9c-2.7-3.3-6.8-1.5-10.4-2.7c-3.1-1.1-5.4-3.9-6.3-7c0,0.1-0.1,0.1-0.1,0.2
						c0.1-0.2,0.2-0.4,0.2-0.6c0.1-0.2,0.2-0.3,0.2-0.3s0.1,0.1,0.2,0.2c0.1,0.1,0.3,0.3,0.6,0.5c0.5,0.4,1.3,0.6,2.2,0.7
						c0.4,0,0.9,0,1.3,0c0.2,0,0.4-0.1,0.7-0.1c0.3,0,0.5-0.1,0.8-0.1c0.6-0.1,1.2-0.1,1.9-0.1c0.7,0,1.6,0.1,2.6,0.3
						c1,0.2,1.9,0.6,2.8,1c0.8,0.5,1.6,1,2.2,1.6c1.3,1.2,2.2,2.5,2.7,3.7c0.5,1.1,0.7,2.1,0.8,2.8c0,0,0,0,0,0
						C94.3,220.5,93.3,220.7,92.6,219.9z"/>
				</g>
				<g>
					<path class="st1" d="M80.4,185.3c-1.4-0.2-2.2-1.1-3.4-1.7c-1.5-0.8-3.2-0.6-4.7-1c-2.3-0.5-3.8-1.8-5-3.7
						c0.1-0.1,0.4-0.2,0.7-0.5c0.3-0.1,0.6-0.3,0.9-0.5c0.4-0.2,0.8-0.3,1.2-0.5c0.9-0.3,2-0.5,3.2-0.5c0.6,0,1.2,0.1,1.8,0.2
						c0.6,0.1,1.2,0.4,1.8,0.6c0.6,0.3,1.1,0.6,1.5,1.1c0.5,0.4,0.9,0.9,1.2,1.3c0.7,0.9,1.2,1.9,1.5,2.8c0.2,0.5,0.3,0.9,0.3,1.3
						c0,0.2,0.1,0.4,0.1,0.5c0.4,0.4,0.9,0.7,1.3,1.1c-0.4-0.4-0.8-0.8-1.2-1.1C81.4,185.2,81,185.4,80.4,185.3z"/>
				</g>
				<g>
					<path class="st1" d="M84.4,182c0,0,0-0.1,0-0.1C84.4,181.9,84.4,182,84.4,182z"/>
				</g>
				<path class="st1" d="M67.3,178.9C67.3,178.9,67.3,178.9,67.3,178.9C67.3,178.9,67.3,178.9,67.3,178.9z"/>
				<g>
					<path class="st1" d="M108.2,234.4c0,0,0-0.1-0.1-0.3c-0.1-0.1-0.1-0.3-0.2-0.5c0-0.1-0.1-0.2-0.1-0.3c-0.2-0.7-0.4-1.8-0.5-3.1
						c0-0.3,0-0.6,0-0.9c7.5,1.4,11.5-9.4,10.8-16.1c0,0.1,0.1,0.2,0.1,0.2c0,0,0,0,0,0c0,0.1,0.1,0.1,0.1,0.2c0,0,0,0.1,0.1,0.1
						c0,0.1,0,0.1,0.1,0.2c0,0.1,0.1,0.2,0.1,0.3c0.2,0.5,0.3,1.1,0.4,1.8c0.2,1.3,0.2,3-0.2,4.6c-0.3,1.7-1,3.4-1.9,4.9
						c-0.9,1.5-1.9,2.6-3,3.6c-1,1-2,1.8-2.8,2.5c-0.9,0.7-1.6,1.4-2.1,1.8c-0.1,0.1-0.3,0.2-0.4,0.3c-0.1,0.1-0.2,0.2-0.3,0.2
						C108.3,234.3,108.2,234.4,108.2,234.4z"/>
				</g>
				<g>
					<path class="st1" d="M118.2,288.2c-0.1,8.3-0.7,14.9-1.2,20c-0.1,1-0.2,2-0.3,2.9c0,0.2-0.1,0.5-0.1,0.7
						c-0.1,1.1-0.3,2.1-0.4,3.1c-0.1,1-0.3,1.9-0.4,2.7c-0.7-0.1-1.3-0.4-2-0.7c0.2-2.4,0.4-5.3,0.7-8.9c0.2-2.8,0.4-6,0.6-9.6
						c0.1-2.5,0.2-5.1,0.3-8c0-0.7,0-1.4,0-2c0-5.6-0.2-11.7-0.9-18.1c-0.7-6.4-2-13-4-19.5c-2-6.5-4.8-12.8-7.7-18.9
						c-1.2-2.5-2.4-4.9-3.6-7.4c-0.3-0.1-0.6-0.3-0.9-0.5c-0.7-0.4-1.6-1-2.3-1.7c-0.4-0.3-0.7-0.7-1-1c0,0.1,0,0.2,0,0.2
						s-0.4-0.1-1.1-0.3c-0.7-0.2-1.6-0.4-2.6-0.6c-1-0.2-2.2-0.4-3.3-0.6c-0.6-0.1-1.2-0.2-1.7-0.3c-0.6-0.1-1.1-0.2-1.7-0.3
						c-1.2-0.3-2.8-0.7-4.4-1.5c-0.4-0.2-0.8-0.4-1.2-0.7c-0.4-0.3-0.8-0.6-1.1-0.9c-0.6-0.6-1.1-1.3-1.5-2
						c-0.7-1.4-0.8-2.7-0.6-3.5c0-0.1,0-0.2,0.1-0.3c0,0,0,0,0,0c0-0.1,0-0.2,0.1-0.2c0.9,3.2,3.2,5.9,6.3,7
						c3.6,1.3,7.7-0.5,10.4,2.7c0.7,0.8,1.7,0.7,2.3,0.1c0,0,0,0,0,0c1.1,1.1,2.5,2.2,3.6,2.9c-1.5-3-3-6-4.4-8.9
						c-1.2-2.4-2.3-4.8-3.3-7.2c-0.2-0.1-0.3-0.3-0.5-0.5c-1.2-1.1-2.8-2.7-4.1-4c0,0.1,0,0.1,0,0.1s-0.1,0-0.3-0.1
						c-0.2-0.1-0.4-0.2-0.7-0.2c-0.3-0.1-0.7-0.2-1.1-0.3c-0.4-0.1-0.9-0.2-1.3-0.2c-0.5-0.1-1-0.1-1.5-0.2
						c-0.5-0.1-1.1-0.1-1.7-0.3c-1.2-0.2-2.5-0.5-3.9-1.2c-1.5-0.7-2.8-1.8-3.9-3c-0.5-0.6-1-1.3-1.3-1.9c-0.4-0.7-0.6-1.3-0.8-2
						c-0.2-0.6-0.3-1.2-0.3-1.8c0-0.1,0-0.2,0-0.3c0.3,1.5,1.3,2.5,2.3,3.8c1,1.3,1.7,2.8,3.2,3.5c1.5,0.8,3.2,0.7,4.8,0.7
						c2.1,0.1,3.2,0.9,4.8,2.1c0.6,0.5,1.3,0.4,1.8,0c0,0,0,0,0,0c0,0.1,0,0.1,0,0.2c0,0,0,0.1,0,0.1c1.2,1,2.5,2.2,3.7,3.2
						c-1-2.4-1.9-4.8-2.7-7.1c-0.9-2.5-1.6-4.9-2.1-7.1c-0.2-0.3-0.4-0.6-0.7-1c-0.7-1-1.6-2.2-2.6-3.3c0,0.2,0,0.3,0,0.3
						s-0.4,0-0.9,0.1c-0.3,0-0.6,0-1,0.1c-0.4,0-0.8,0-1.2,0c-0.9,0-1.8,0-2.8-0.2c-0.5-0.1-0.9-0.2-1.4-0.3
						c-0.5-0.1-0.9-0.3-1.4-0.5c-0.4-0.2-0.8-0.5-1.2-0.8c-0.4-0.3-0.7-0.6-1.1-1c-0.7-0.7-1.3-1.5-1.8-2.2c-0.3-0.4-0.5-0.7-0.7-1
						c-0.2-0.3-0.4-0.6-0.5-0.8c-0.3-0.5-0.5-0.8-0.5-0.8s0,0,0.1,0c0,0,0,0,0,0c0,0,0,0,0,0c1.2,1.9,2.7,3.2,5,3.7
						c1.6,0.4,3.3,0.2,4.7,1c1.2,0.6,2,1.5,3.4,1.7c0.5,0.1,0.9-0.1,1.2-0.3c0.4,0.3,0.8,0.7,1.2,1.1c0.1,0.1,0.3,0.3,0.4,0.4
						c0.4,0.4,0.8,0.9,1.2,1.3c-0.3-1.5-0.6-3-0.8-4.3c-0.2-1.2-0.3-2.3-0.4-3.4c-0.1-0.2-0.4-0.6-0.8-1.3c-0.1-0.2-0.3-0.5-0.4-0.8
						c-0.1-0.3-0.3-0.6-0.4-1c-0.3-0.7-0.6-1.5-0.8-2.5c-0.1-0.5-0.2-1-0.4-1.5c-0.1-0.5-0.2-1.1-0.2-1.6c-0.2-1.1-0.2-2.3-0.2-3.6
						c0-0.6,0-1.2,0.1-1.9c0-0.6,0.1-1.3,0.2-1.9c0.1-1.3,0.4-2.6,0.7-3.9c0.3-1.3,0.6-2.5,1-3.7c0.4-1.2,0.7-2.3,1.1-3.3
						c0.3-1,0.7-2,1-3c0.2-0.5,0.3-0.9,0.5-1.4c0.1-0.4,0.3-0.8,0.4-1.3c0.3-0.8,0.4-1.6,0.6-2.3c0.1-0.3,0.2-0.7,0.3-1
						c0-0.1,0-0.2,0-0.3c0.6,2.6,0.7,5.2,0.4,7.9c-0.4,3.2-1.8,6.2-2.6,9.3c-0.8,3-1,6-1.3,9.1c-0.2,2.7-0.1,5.1,1.4,7.4
						c0.1,0.2,0.3,0.3,0.4,0.4c0,0,0,0,0,0c0.1,1.1,0.3,2.4,0.6,3.7c0,0,0,0.1,0,0.1c0,0.2,0.1,0.4,0.1,0.5c0,0.2,0.1,0.5,0.1,0.7
						c0.2,1.2,0.5,2.6,0.9,3.9c0.1-0.3,0.2-0.6,0.3-0.9c0.5-1.3,1.3-3,2.2-4.4c0-0.1,0-0.1-0.1-0.2c0.4,0.1,0.9,0.1,1.2-0.1
						c2.2-1.3,3.6-3.3,4.7-5.5c0.9-1.8,1.3-4.9,3.2-5.9c0.1,0,0.1-0.1,0.1-0.1c0,0,0,0,0,0c0,0,0,0,0,0c0,0.1,0,0.1,0,0.2
						c0,0.6,0,1.3,0,2.2c-0.1,1.8-0.4,3.8-1.5,5.5c-1.1,1.7-2.9,2.8-4.5,3.6c-0.8,0.4-1.5,0.7-2,0.9c-0.5,0.2-0.9,0.3-0.9,0.3
						c-0.7,1.3-1.3,2.7-1.7,3.8c-0.4,1-0.6,1.7-0.8,2.1c0.7,2.6,1.6,5.3,2.7,8.2c0.5,1.3,1,2.6,1.5,3.9c0.1-0.3,0.2-0.7,0.3-1.2
						c0.4-1.4,1.1-3.1,1.9-4.7c0,0,0,0,0,0c0,0,0-0.1,0-0.1c0,0,0,0,0,0c0.6-0.1,1.2-0.6,1.2-1.4c0.2-3.9,6.1-5.7,8.1-8.6
						c1.8-2.6,2.1-5.7,1.9-8.8c0,0,0,0,0,0c0,0,0,0,0,0c0,0.1,0.1,0.2,0.1,0.3c0,0.1,0,0.1,0.1,0.2c0,0,0,0.1,0,0.1
						c0,0.1,0.1,0.2,0.1,0.3c0.2,0.5,0.3,1.1,0.4,1.8c0.1,0.7,0.1,1.4,0,2.2c-0.1,0.8-0.2,1.6-0.5,2.4c-0.5,1.6-1.3,3.2-2.3,4.6
						c-1,1.3-2,2.3-3,3.2c-1,0.8-2,1.5-2.8,2.2c-0.4,0.3-0.8,0.6-1.1,0.9c-0.3,0.3-0.6,0.6-0.9,0.8c-0.3,0.2-0.4,0.5-0.6,0.6
						c-0.1,0.1-0.2,0.2-0.2,0.2s0,0,0-0.1c-0.6,1.4-1.1,2.8-1.5,4c-0.3,1-0.5,1.6-0.7,2.1c1.5,3.5,3.2,7.2,5.1,11
						c1.1,2.1,2.2,4.3,3.3,6.5c0-1.1,0-2.4,0.1-3.8c0.1-0.9,0.2-1.8,0.4-2.6c-0.1-0.1-0.1-0.2-0.2-0.3c0.1-0.1,0.1-0.2,0.1-0.3
						c2.3-5.8,5.4-10.6,9.2-15.5c2.4-3.1,4.2-6.7,2.2-10.4c0,0,0,0,0,0c0,0,0.1,0.1,0.1,0.1c0.1,0.2,0.3,0.5,0.5,0.9
						c0.4,0.8,0.6,2.2,0.5,3.9c-0.1,0.8-0.3,1.8-0.6,2.7c-0.3,0.9-0.7,1.9-1.2,2.8c-0.5,0.9-1,1.7-1.5,2.5c-0.5,0.8-1,1.5-1.4,2.2
						c-0.4,0.7-0.9,1.3-1.4,2.1c-0.4,0.7-0.9,1.3-1.3,2c-0.4,0.7-0.8,1.3-1.2,2c-0.4,0.6-0.8,1.3-1.1,1.8c-0.2,0.3-0.3,0.6-0.5,0.9
						c-0.2,0.3-0.3,0.5-0.4,0.8c-0.3,0.5-0.5,1-0.7,1.3c-0.2,0.3-0.3,0.6-0.4,0.8c-0.1,0.7-0.2,1.5-0.2,2.2
						c-0.1,1.5-0.1,2.9-0.1,4.1c0,0.6,0.1,1.2,0.1,1.6c1.6,3,3.2,6.1,4.7,9.2c0.8,1.7,1.7,3.4,2.5,5.2c0.2,0.5,0.5,1,0.7,1.5
						c1.8,4,3.5,8.2,4.9,12.5c2.1,6.6,3.5,13.4,4.3,19.9c0,0.4,0.1,0.8,0.1,1.2c0.2,1.7,0.3,3.4,0.5,5
						C118.2,280.2,118.3,284.3,118.2,288.2z"/>
				</g>
				<g>
					<path class="st1" d="M70.2,289.7c0-0.1,0-0.2,0-0.2C70.2,289.6,70.2,289.6,70.2,289.7z"/>
				</g>
				<g>
					<path class="st1" d="M70.3,290.1c0-0.1,0-0.2,0-0.3C70.2,289.9,70.3,290,70.3,290.1z"/>
				</g>
				<g>
					<path class="st1" d="M83.8,264.2c0,0,0.1-0.1,0.1-0.1C83.9,264.1,83.9,264.2,83.8,264.2z"/>
				</g>
				<g>
					<path class="st1" d="M33.6,236.3c-0.1,0.1-0.1,0.1-0.1,0.2C33.5,236.4,33.6,236.4,33.6,236.3z"/>
				</g>
				<g>
					<path class="st1" d="M84.1,264c0,0,0.1-0.1,0.1-0.1C84.2,263.9,84.1,263.9,84.1,264z"/>
				</g>
				<g>
					<path class="st1" d="M84.4,263.6c0,0,0.1-0.1,0.1-0.1C84.4,263.6,84.4,263.6,84.4,263.6z"/>
				</g>
				<g>
					<path class="st1" d="M34.1,235.8c-0.1,0.1-0.1,0.1-0.2,0.2C34,235.9,34,235.8,34.1,235.8z"/>
				</g>
				<g>
					<path class="st1" d="M84.7,263.2c0,0,0.1-0.1,0.1-0.1C84.8,263.1,84.7,263.2,84.7,263.2z"/>
				</g>
				<g>
					<path class="st1" d="M84.9,262.9c0-0.1,0.1-0.1,0.1-0.2C85,262.8,84.9,262.8,84.9,262.9z"/>
				</g>
				<g>
					<path class="st1" d="M34.9,252.7c0,0.1,0,0.3-0.1,0.4C34.8,253,34.9,252.8,34.9,252.7z"/>
				</g>
				<g>
					<path class="st1" d="M34.8,253.6c0,0.1,0,0.3,0,0.4C34.8,253.9,34.8,253.8,34.8,253.6z"/>
				</g>
				<g>
					<path class="st1" d="M34.8,253.2c0,0.1,0,0.3,0,0.4C34.8,253.4,34.8,253.3,34.8,253.2z"/>
				</g>
				<g>
					<path class="st1" d="M33.4,236.6c0,0.1-0.1,0.1-0.1,0.2C33.4,236.7,33.4,236.7,33.4,236.6z"/>
				</g>
				<g>
					<path class="st1" d="M33.3,236.9c0,0.1-0.1,0.2-0.1,0.3C33.2,237.1,33.3,237,33.3,236.9z"/>
				</g>
				<g>
					<path class="st1" d="M95.8,245.2c0-0.2-0.1-0.3-0.2-0.5C95.7,244.9,95.8,245,95.8,245.2z"/>
				</g>
				<g>
					<path class="st1" d="M92.9,240.1c-0.1-0.2-0.2-0.5-0.4-0.7C92.6,239.6,92.8,239.9,92.9,240.1z"/>
				</g>
				<g>
					<path class="st1" d="M95.9,245.7c0-0.1,0-0.2-0.1-0.3C95.9,245.5,95.9,245.6,95.9,245.7z"/>
				</g>
				<g>
					<path class="st1" d="M91.8,238.5C91.7,238.5,91.7,238.5,91.8,238.5C91.7,238.5,91.7,238.5,91.8,238.5z"/>
				</g>
				<g>
					<path class="st1" d="M83.5,264.5c0,0,0.1-0.1,0.1-0.1C83.6,264.4,83.6,264.4,83.5,264.5z"/>
				</g>
				<g>
					<path class="st1" d="M95.9,248.7c0-0.1,0-0.3,0.1-0.4C96,248.4,96,248.6,95.9,248.7z"/>
				</g>
				<g>
					<path class="st1" d="M91.5,238.3C91.4,238.3,91.4,238.2,91.5,238.3C91.4,238.2,91.4,238.3,91.5,238.3z"/>
				</g>
				<g>
					<path class="st1" d="M91.1,238C91.1,238,91.1,238,91.1,238C91.1,238,91.1,238,91.1,238z"/>
				</g>
				<g>
					<path class="st1" d="M90.8,237.8C90.8,237.8,90.7,237.8,90.8,237.8C90.7,237.8,90.8,237.8,90.8,237.8z"/>
				</g>
				<g>
					<path class="st1" d="M96,246.2c0-0.1,0-0.2-0.1-0.3C96,246,96,246.1,96,246.2z"/>
				</g>
				<g>
					<path class="st1" d="M96,248.1c0-0.1,0-0.2,0-0.3C96.1,247.9,96,248,96,248.1z"/>
				</g>
				<g>
					<path class="st1" d="M96.1,247.1c0-0.1,0-0.2,0-0.3C96.1,246.9,96.1,247,96.1,247.1z"/>
				</g>
				<g>
					<path class="st1" d="M96.1,246.6c0-0.1,0-0.2,0-0.3C96,246.4,96.1,246.5,96.1,246.6z"/>
				</g>
				<g>
					<path class="st1" d="M96.1,247.6c0-0.1,0-0.2,0-0.3C96.1,247.4,96.1,247.5,96.1,247.6z"/>
				</g>
				<g>
					<path class="st1" d="M35,255.8C35,255.8,35,255.8,35,255.8C35,255.8,35,255.8,35,255.8C35,255.8,35,255.8,35,255.8z"/>
				</g>
				<g>
					<path class="st1" d="M34.9,255.5C34.9,255.4,34.9,255.4,34.9,255.5C34.9,255.4,34.9,255.4,34.9,255.5
						C34.9,255.5,34.9,255.5,34.9,255.5z"/>
				</g>
				<g>
					<path class="st1" d="M35.1,256c0-0.1-0.1-0.1-0.1-0.2c0,0,0,0,0,0C35,255.9,35.1,256,35.1,256z"/>
				</g>
				<g>
					<path class="st1" d="M82.4,265.2c0,0,0.1,0,0.1-0.1C82.5,265.1,82.4,265.1,82.4,265.2z"/>
				</g>
				<g>
					<path class="st1" d="M40.1,235.4c0.7,1,1.9,1.6,3,2c1.3,0.5,2.6,0.8,3.9,1.2c1.4,0.4,2.8,0.8,4.3,1.1c1.1,0.3,2.2,0.6,3.3,0.8
						c0.6,0.1,1.3,0.2,1.9,0.5c0.4,0.3,0.4,0.7,0.2,1.1c-0.5,0.7-1.5,0.6-2.2,0.8c-0.6,0.2-0.9,0.5-1.1,1.1
						c-0.2,0.4-0.4,0.8-0.7,1.1c-0.7,0.5-1.5,0.7-2.3,0.8c-0.8,0.1-1.3,0.3-1.7,1.1c-0.3,0.5-0.4,1.1-0.6,1.7
						c-0.2,0.5-0.3,1.1-0.7,1.4c-0.2,0.2-0.6,0.2-0.5,0.7c0.1,0.2,0.3,0.4,0.4,0.7c0.2,0.4,0.3,0.8,0.3,1.2c0,0.5-0.2,0.7-0.7,0.9
						c-0.5,0.2-1,0.3-1.4,0.6c-0.5,0.3-0.9,0.7-1.3,1.1c-0.7,0.7-1.7,1.1-2.7,0.9c-0.6-0.1-1.2-0.3-1.7-0.6
						c-0.8-0.3-1.4-0.4-2.2-0.1c-0.7,0.3-1.4,0.3-2.1,0.1c0.1-0.6,0.3-1.1,0.5-1.6c0.7-2,2.1-3.7,2.8-5.7c0.8-2.2,0-4.4-0.6-6.4
						c-0.3-1-0.7-2-1.3-2.9c-0.5-0.7-0.9-1.5-1.3-2.3c-0.2-0.4-0.3-0.9-0.4-1.4c0.5-0.2,1-0.4,1.5-0.4c1.3-0.1,2.5,0.4,3.7,1
						c-0.4-0.6-0.7-1.3-1-2c0,0.1,0.1,0.1,0.1,0.2C39.6,234.4,39.7,234.9,40.1,235.4z"/>
				</g>
				<g>
					<path class="st1" d="M35.2,256.2c0,0,0-0.1,0-0.1C35.1,256.1,35.1,256.2,35.2,256.2C35.1,256.2,35.1,256.2,35.2,256.2z"/>
				</g>
				<g>
					<path class="st1" d="M35.2,256.3C35.2,256.3,35.2,256.3,35.2,256.3C35.2,256.2,35.2,256.2,35.2,256.3
						C35.2,256.3,35.2,256.3,35.2,256.3z"/>
				</g>
				<g>
					<path class="st1" d="M79.6,227.1c-0.7,1.9-0.2,4-1.1,5.8c-0.4,0.9-1.1,1.2-2.1,1.2c-0.8,0-1.5-0.1-2.2,0.2
						c-0.7,0.4-1.2,0.9-1.6,1.5c-0.4,0.6-0.7,1.2-0.9,1.8c-0.2,0.5-0.3,1.1-0.5,1.6c-0.1,0.2-0.2,0.4-0.4,0.6c0-0.1,0.1-0.1,0.1-0.2
						c0.1-0.4,0.1-0.8-0.2-1c-0.3-0.2-0.6-0.3-1-0.2c-0.1,0-0.2,0.1-0.2,0.1l0,0c0,0,0,0,0,0c-0.1,0-0.1,0.1-0.1,0.1c0,0,0,0,0,0
						c0,0,0,0-0.1,0.1c0,0,0,0,0,0c0,0,0,0,0,0.1c0,0,0,0,0,0c0,0,0,0,0,0.1c0,0,0,0,0,0.1c0,0,0,0,0,0.1c0,0,0,0,0,0.1s0,0,0,0.1
						c0,0,0,0,0,0.1c0,0,0,0,0,0c0,0,0,0.1,0,0.1c0,0,0,0,0,0c0,0,0,0.1,0,0.1c0,0,0,0,0,0c0,0,0,0,0,0.1c0,0,0,0,0,0c0,0,0,0,0,0.1
						c0,0,0,0,0,0c0,0,0,0,0,0.1c0,0,0,0,0,0c0,0,0,0,0.1,0.1c0,0,0,0,0,0c0,0,0.1,0.1,0.1,0.1c0.1,0.1,0.2,0.1,0.2,0.1c0,0,0,0,0,0
						c0,0.1,0,0.2-0.1,0.3c-0.3,0-0.6,0-0.9,0c-0.1,0-0.2,0-0.2,0c0,0,0-0.1,0-0.1c0,0,0,0,0,0c0.1,0,0.2,0,0.3-0.1
						c0.1-0.1,0.2-0.2,0.2-0.3c0-0.1,0-0.1,0-0.2c0,0,0,0,0,0c0,0,0,0,0,0c0.1-0.3,0-0.7-0.4-0.9c-0.4-0.2-0.8,0.1-1,0.5
						c0,0,0,0,0,0c0,0,0,0,0,0.1c-0.1,0.3,0.1,0.7,0.4,0.8c0.1,0,0.1,0,0.2,0.1c0,0,0,0.1,0,0.1c-0.2,0-0.4,0-0.7,0
						c0-0.2,0-0.4,0-0.6c0-0.2,0-0.3,0-0.5c0-0.2,0-0.3,0-0.5c0-0.3-0.1-0.6-0.1-0.9c0-0.3-0.1-0.6-0.1-0.8
						c-0.1-0.2-0.1-0.5-0.1-0.7c0-0.1,0-0.2-0.1-0.3c0-0.1-0.1-0.2-0.1-0.3c0-0.1-0.1-0.2-0.1-0.3c0,0,0,0,0.1,0c0,0,0,0,0.1,0
						c0,0,0.1,0,0.1,0c0,0,0,0,0.1,0c0,0,0,0,0.1,0c0,0,0,0,0.1-0.1c0,0,0,0,0.1-0.1c0,0,0,0,0.1-0.1c0,0,0,0,0-0.1c0,0,0-0.1,0-0.1
						c0,0,0,0,0-0.1c0,0,0-0.1,0-0.1c0,0,0,0,0,0c0,0,0,0,0,0c0,0,0-0.1,0-0.1c0-0.2-0.1-0.4-0.2-0.6c0,0,0-0.1-0.1-0.1
						c-0.4-0.3-1-0.1-1.2,0.3c-0.1,0.1-0.1,0.2-0.1,0.4c0,0,0,0,0,0c0,0.1,0,0.1,0,0.2c0,0,0,0,0,0c0,0,0,0.1,0,0.1c0,0,0,0,0,0
						c0,0,0.1,0.1,0.1,0.1c0,0,0,0,0,0c0,0,0.1,0.1,0.1,0.1c0,0,0,0,0,0c0,0,0.1,0,0.1,0.1c0,0,0,0,0,0c0.1,0,0.1,0,0.2,0
						c0,0,0.1,0,0.1,0c0,0.1,0,0.2,0,0.3c0,0.1,0,0.2,0,0.3c0,0.1,0,0.2,0,0.3c0,0.2,0.1,0.4,0.1,0.7c0,0.2,0,0.5,0.1,0.8
						c0,0.3,0,0.6,0.1,0.9c0,0.2,0,0.3,0,0.5c0,0.2,0,0.3,0,0.5c0,0.2,0,0.5,0,0.7c-0.3,0.1-0.5,0.3-0.7,0.5c0,0,0,0.1-0.1,0.1
						c-0.1-0.2-0.1-0.3-0.3-0.4c-0.2-0.1-0.5,0-0.6,0.2c0,0,0,0-0.1,0c-0.3,0.2-0.3,0.6-0.2,0.9l0,0c0,0,0,0,0,0c0,0,0,0.1,0.1,0.1
						c0,0,0,0,0,0c0,0,0,0.1,0.1,0.1c-0.2,0.1-0.4,0.1-0.7,0.1c0.1-0.8,0.2-1.7,0.3-2.4c0.2-1.3,0.4-2.3,0.6-3.1
						c0.1,0,0.2-0.1,0.3-0.2c0,0,0.1,0,0.1-0.1c0,0,0,0,0,0c0,0,0,0,0,0c0,0,0,0,0,0c0.2-0.2,0.2-0.6,0-0.9
						c-0.3-0.3-0.9-0.5-1.2-0.1c-0.1,0.1-0.1,0.2-0.2,0.4c0,0,0,0,0,0c0,0,0,0,0,0.1c0,0,0,0,0,0c0,0.1,0,0.1,0,0.2c0,0,0,0,0,0
						c0,0,0,0.1,0,0.1c0,0,0,0,0,0c0,0,0,0.1,0.1,0.1c0,0,0,0,0,0c0,0,0,0.1,0.1,0.1c0,0,0,0,0,0c0,0,0.1,0.1,0.1,0.1
						c0.1,0,0.1,0.1,0.2,0.1c-0.3,0.7-0.6,1.8-0.8,3c-0.2,0.7-0.3,1.5-0.4,2.3c0,0,0,0,0,0c-0.5-0.2-0.9-0.5-1.4-0.5
						c0-0.3,0-0.7,0.1-1c0-0.1,0-0.3,0-0.4c0-0.1,0-0.3,0.1-0.4c0-0.3,0.1-0.5,0.1-0.7c0-0.2,0.1-0.5,0.1-0.7c0-0.2,0.1-0.4,0.1-0.6
						c0-0.1,0-0.2,0.1-0.3c0,0,0-0.1,0-0.1c0,0,0,0,0.1,0c0.3,0,0.5-0.2,0.6-0.4c0,0,0.1,0,0.1-0.1l0,0l0,0c0,0,0.1-0.1,0.1-0.2
						c0-0.4-0.2-0.8-0.7-0.9c-0.3,0-0.7,0.2-0.8,0.5c0,0,0,0,0,0c0,0,0,0.1,0,0.1c0,0.3,0.2,0.6,0.5,0.7c0,0,0,0,0,0
						c0,0.1-0.1,0.2-0.1,0.2c-0.1,0.2-0.1,0.4-0.2,0.6c-0.1,0.2-0.1,0.4-0.2,0.7c-0.1,0.2-0.1,0.5-0.2,0.8c0,0.1-0.1,0.3-0.1,0.4
						c0,0.1,0,0.3-0.1,0.4c-0.1,0.4-0.1,0.8-0.2,1.2c0,0-0.1,0-0.1-0.1c-0.2-0.6-0.3-1.3-0.4-1.9c0,0,0,0,0,0c0,0,0,0,0,0l0,0
						c0.2-0.3,0.1-0.8-0.2-1c-0.1-0.8-0.1-1.5,0.1-2.3c0.3-1.7-1.1-2.7-1.7-4.1c-0.6-1.4-0.3-3.3,0-4.7c0.2-1.1,0.6-2.3,0.9-3.4
						c0.5-0.8,1.1-1.5,1.8-2.2c0.7-0.7,1.5-1.3,2.4-1.7c0.8,0.1,1.5,0.1,2.3,0c0.8-0.2,1.5-0.5,2.3-0.8c0.6-0.3,1.3-0.6,1.9-0.5
						c0.6,0.1,1,0.6,1.4,0.9c0.6,0.4,1.1,0.8,1.8,0.8c1.3,0,2.5-0.5,3.7-0.8c0.7-0.1,1.3-0.1,1.9,0.1c-0.1-0.1-0.1-0.2-0.2-0.3
						c0.5,0.6,0.9,1.4,1.3,2c0.5,0.8,0.9,1.6,1.4,2.4C81.2,222.9,80,226,79.6,227.1z"/>
				</g>
				<g>
					<path class="st1" d="M93.3,241.2c0.1,0.2,0.2,0.4,0.3,0.6c0.1,0.2,0.3,0.3,0.4,0.5c-0.2-0.2-0.3-0.3-0.4-0.5
						C93.4,241.6,93.3,241.4,93.3,241.2z"/>
				</g>
				<g>
					<path class="st1" d="M52.7,223c0.1,0.7,0.1,1.3-0.1,2c-0.2,0.8-0.7,1.5-1,2.3c-0.4,0.9-0.6,1.8-0.4,2.8
						c0.1,0.8,0.4,1.6,0.7,2.4c0.3,0.8,0.5,1.6,0.6,2.4c0.1,1,0.2,2,0.4,3c0,0.1,0,0.1-0.1,0.1c-1.2,0.3-2.4-0.6-3.5-0.9
						c-0.7-0.2-1.4-0.2-2.1-0.3c-0.5-0.1-0.9-0.3-1.3-0.5c-0.6-0.3-1.1-0.7-1.7-1.1c-0.5-0.3-1.1-0.5-1.7-0.7
						c-1.2-0.4-2.4-0.8-3.5-1.3c-0.1-0.2-0.2-0.4-0.2-0.6c-0.5-1.4-0.9-2.8-0.8-4.3c0.4-0.5,0.8-1.1,1.1-1.7
						c0.7-1.3,1.5-2.6,2.2-3.9c0.5-1,1.1-2.2,2.1-2.9c1.1-0.7,2.5-0.5,3.6,0.1c0.4,0.2,0.8,0.5,1.3,0.6c0.5,0.1,1-0.1,1.4-0.3
						c0,0,0,0-0.1,0c0,0,0.1,0,0.1,0c0.8-0.1,1.6-0.6,2.4-0.8c0.3-0.1,0.5-0.1,0.8-0.1C52.3,220.4,52.6,221.7,52.7,223z"/>
				</g>
				<g>
					<path class="st1" d="M68,219.4c0.1-0.1,0.1-0.2,0.1-0.2c0.1-0.1,0.2-0.2,0.3-0.3c-0.1,0.1-0.2,0.2-0.3,0.3
						C68.1,219.2,68,219.3,68,219.4z"/>
				</g>
				<g>
					<path class="st1" d="M59.1,225.9c0.1,0.4,0.1,0.9,0.1,1.3c0,0,0,0,0,0C59.2,226.8,59.2,226.3,59.1,225.9z"/>
				</g>
				<g>
					<path class="st1" d="M80.8,265.7c0,0,0.1,0,0.1,0C80.9,265.7,80.9,265.7,80.8,265.7z"/>
				</g>
				<g>
					<path class="st1" d="M35.2,256.4c0,0.1,0.1,0.2,0.1,0.3C35.3,256.6,35.3,256.5,35.2,256.4z"/>
				</g>
				<g>
					<path class="st1" d="M37.7,258.6c0.1,0,0.2,0.1,0.3,0.1C37.9,258.7,37.8,258.6,37.7,258.6z"/>
				</g>
				<g>
					<path class="st1" d="M34.8,255c0,0.1,0,0.3,0.1,0.4C34.8,255.2,34.8,255.1,34.8,255z"/>
				</g>
				<g>
					<path class="st1" d="M73.8,264.5c0.2,0.1,0.5,0.3,0.8,0.4C74.3,264.7,74,264.6,73.8,264.5z"/>
				</g>
				<g>
					<path class="st1" d="M34.9,255.5c0,0.1,0.1,0.2,0.1,0.3C34.9,255.7,34.9,255.6,34.9,255.5z"/>
				</g>
				<g>
					<path class="st1" d="M81.2,265.6c0.1,0,0.1,0,0.2,0C81.3,265.6,81.3,265.6,81.2,265.6z"/>
				</g>
				<g>
					<path class="st1" d="M83.2,264.7c0,0,0.1-0.1,0.1-0.1C83.3,264.6,83.2,264.7,83.2,264.7z"/>
				</g>
				<g>
					<path class="st1" d="M82,265.3c0,0,0.1,0,0.1-0.1C82.1,265.3,82.1,265.3,82,265.3z"/>
				</g>
				<g>
					<path class="st1" d="M82.9,264.9C82.9,264.9,82.9,264.9,82.9,264.9C82.9,264.9,82.9,264.9,82.9,264.9z"/>
				</g>
				<g>
					<path class="st1" d="M34.7,254.1c0,0.3,0,0.6,0,0.8C34.8,254.7,34.7,254.4,34.7,254.1z"/>
				</g>
				<g>
					<path class="st1" d="M81.6,265.5c0.1,0,0.1,0,0.2-0.1C81.7,265.4,81.7,265.4,81.6,265.5z"/>
				</g>
				<g>
					<path class="st1" d="M33.9,236c-0.1,0.1-0.1,0.2-0.2,0.2C33.7,236.2,33.8,236.1,33.9,236z"/>
				</g>
				<g>
					<path class="st1" d="M54.7,219.6c0,0-0.1,0-0.1,0C54.7,219.6,54.7,219.6,54.7,219.6z"/>
				</g>
				<g>
					<path class="st1" d="M55,219.7c0,0-0.1,0-0.1,0C54.9,219.7,55,219.7,55,219.7z"/>
				</g>
				<g>
					<path class="st1" d="M55.3,219.8C55.3,219.8,55.2,219.8,55.3,219.8C55.2,219.8,55.3,219.8,55.3,219.8z"/>
				</g>
				<g>
					<path class="st1" d="M54.4,219.5c0,0-0.1,0-0.1,0C54.4,219.5,54.4,219.5,54.4,219.5z"/>
				</g>
				<g>
					<path class="st1" d="M55.6,220C55.6,220,55.6,219.9,55.6,220C55.6,219.9,55.6,220,55.6,220z"/>
				</g>
				<g>
					<path class="st1" d="M53.5,219.3c0,0-0.1,0-0.1,0C53.4,219.3,53.4,219.3,53.5,219.3z"/>
				</g>
				<g>
					<path class="st1" d="M54.1,219.4C54.1,219.4,54.1,219.4,54.1,219.4C54.1,219.4,54.1,219.4,54.1,219.4z"/>
				</g>
				<g>
					<path class="st1" d="M53.8,219.3c0,0-0.1,0-0.1,0C53.7,219.3,53.7,219.3,53.8,219.3z"/>
				</g>
				<g>
					<path class="st1" d="M56.4,220.5C56.4,220.5,56.3,220.5,56.4,220.5C56.3,220.5,56.4,220.5,56.4,220.5z"/>
				</g>
				<g>
					<path class="st1" d="M59.5,226.5c-0.1,0.2-0.2,0.5-0.3,0.7C59.3,227,59.4,226.7,59.5,226.5z"/>
				</g>
				<g>
					<path class="st1" d="M59.8,225.8c-0.1,0.2-0.2,0.5-0.3,0.7C59.6,226.2,59.7,226,59.8,225.8z"/>
				</g>
				<g>
					<path class="st1" d="M60.2,225.1c-0.1,0.2-0.2,0.5-0.3,0.7C59.9,225.5,60.1,225.3,60.2,225.1z"/>
				</g>
				<g>
					<path class="st1" d="M56.2,220.3C56.1,220.3,56.1,220.3,56.2,220.3C56.1,220.3,56.1,220.3,56.2,220.3z"/>
				</g>
				<g>
					<path class="st1" d="M56.6,220.7C56.6,220.7,56.6,220.6,56.6,220.7C56.6,220.6,56.6,220.7,56.6,220.7z"/>
				</g>
				<g>
					<path class="st1" d="M60.6,224.4c-0.1,0.2-0.3,0.5-0.4,0.7C60.3,224.8,60.4,224.6,60.6,224.4z"/>
				</g>
				<g>
					<path class="st1" d="M53.2,219.3c0,0-0.1,0-0.1,0C53.1,219.3,53.1,219.3,53.2,219.3z"/>
				</g>
				<g>
					<path class="st1" d="M55.9,220.1C55.9,220.1,55.8,220.1,55.9,220.1C55.8,220.1,55.9,220.1,55.9,220.1z"/>
				</g>
				<g>
					<path class="st1" d="M39,233.3c0,0.1,0.1,0.2,0.1,0.3C39.1,233.6,39.1,233.4,39,233.3z"/>
				</g>
				<g>
					<path class="st1" d="M38.1,227.2c0,0.1,0,0.2-0.1,0.3C38.1,227.4,38.1,227.3,38.1,227.2z"/>
				</g>
				<g>
					<path class="st1" d="M38.1,227.6c0,0.1,0,0.2,0,0.3C38,227.8,38,227.7,38.1,227.6z"/>
				</g>
				<g>
					<path class="st1" d="M38,228c0,0.1,0,0.2,0,0.2C38,228.2,38,228.1,38,228z"/>
				</g>
				<g>
					<path class="st1" d="M35,235.2c-0.1,0-0.2,0.1-0.3,0.1C34.8,235.3,34.9,235.2,35,235.2z"/>
				</g>
				<g>
					<path class="st1" d="M34.4,235.6c-0.1,0.1-0.1,0.1-0.2,0.2C34.2,235.7,34.3,235.6,34.4,235.6z"/>
				</g>
				<g>
					<path class="st1" d="M90.5,237.6C90.4,237.6,90.4,237.6,90.5,237.6C90.4,237.6,90.4,237.6,90.5,237.6z"/>
				</g>
				<g>
					<path class="st1" d="M48.5,220.1C48.5,220.1,48.5,220.1,48.5,220.1C48.5,220.1,48.5,220.1,48.5,220.1z"/>
				</g>
				<g>
					<path class="st1" d="M49,220.2C49,220.2,49,220.2,49,220.2C49,220.2,49,220.2,49,220.2z"/>
				</g>
				<g>
					<path class="st1" d="M48.8,220.1C48.8,220.1,48.8,220.1,48.8,220.1C48.8,220.1,48.8,220.1,48.8,220.1z"/>
				</g>
				<g>
					<path class="st1" d="M49.2,220.2C49.2,220.2,49.2,220.2,49.2,220.2C49.2,220.2,49.2,220.2,49.2,220.2z"/>
				</g>
				<g>
					<path class="st1" d="M49.5,220.2C49.5,220.2,49.4,220.2,49.5,220.2C49.4,220.2,49.5,220.2,49.5,220.2z"/>
				</g>
				<g>
					<path class="st1" d="M48.1,219.9c-0.1,0-0.1-0.1-0.2-0.1C47.9,219.8,48,219.9,48.1,219.9z"/>
				</g>
				<g>
					<path class="st1" d="M48.3,220C48.3,220,48.3,220,48.3,220C48.3,220,48.3,220,48.3,220z"/>
				</g>
				<g>
					<path class="st1" d="M38.3,226.7c0,0.1-0.1,0.3-0.1,0.4C38.2,226.9,38.2,226.8,38.3,226.7z"/>
				</g>
				<g>
					<path class="st1" d="M34.7,235.3c-0.1,0.1-0.2,0.1-0.3,0.2C34.5,235.4,34.6,235.4,34.7,235.3z"/>
				</g>
				<g>
					<path class="st1" d="M88.9,237.1C88.8,237.1,88.8,237.1,88.9,237.1C88.8,237.1,88.8,237.1,88.9,237.1z"/>
				</g>
				<g>
					<path class="st1" d="M89.7,237.3c0,0-0.1,0-0.1,0C89.6,237.3,89.6,237.3,89.7,237.3z"/>
				</g>
				<g>
					<path class="st1" d="M89.3,237.2c0,0-0.1,0-0.1,0C89.2,237.2,89.3,237.2,89.3,237.2z"/>
				</g>
				<g>
					<path class="st1" d="M88.5,237c0,0-0.1,0-0.1,0C88.4,237,88.5,237,88.5,237z"/>
				</g>
				<g>
					<path class="st1" d="M65.1,220.3c-0.1,0-0.2,0.1-0.2,0.1C65,220.4,65,220.3,65.1,220.3z"/>
				</g>
				<g>
					<path class="st1" d="M72.1,217.9c-0.2-0.1-0.4-0.1-0.6-0.1C71.7,217.8,71.9,217.8,72.1,217.9z"/>
				</g>
				<g>
					<path class="st1" d="M90,237.4C90,237.4,90,237.4,90,237.4C90,237.4,90,237.4,90,237.4z"/>
				</g>
				<g>
					<path class="st1" d="M88.1,236.9c0,0-0.1,0-0.1,0C88,236.9,88.1,236.9,88.1,236.9z"/>
				</g>
				<g>
					<path class="st1" d="M73.2,218.4c-0.2-0.1-0.4-0.2-0.6-0.3C72.9,218.2,73.1,218.3,73.2,218.4z"/>
				</g>
				<g>
					<path class="st1" d="M74,218.9c-0.2-0.1-0.3-0.3-0.5-0.4C73.7,218.7,73.8,218.8,74,218.9z"/>
				</g>
				<g>
					<path class="st1" d="M82,238.2c-0.3,0.1-0.6,0.2-0.9,0.4C81.5,238.4,81.8,238.3,82,238.2z"/>
				</g>
				<g>
					<path class="st1" d="M79.9,219.8c-0.1-0.1-0.2-0.2-0.2-0.3C79.7,219.6,79.8,219.7,79.9,219.8z"/>
				</g>
				<g>
					<path class="st1" d="M65.7,220.1c-0.1,0-0.2,0.1-0.2,0.1C65.5,220.1,65.6,220.1,65.7,220.1z"/>
				</g>
				<g>
					<path class="st1" d="M83.1,237.8c-0.3,0.1-0.6,0.2-0.9,0.4C82.5,238,82.8,237.9,83.1,237.8z"/>
				</g>
				<g>
					<path class="st1" d="M75.1,220.1c-0.3-0.3-0.6-0.6-0.9-0.9C74.5,219.4,74.8,219.7,75.1,220.1z"/>
				</g>
				<g>
					<path class="st1" d="M66.3,219.9c-0.1,0-0.1,0-0.2,0.1C66.1,220,66.2,219.9,66.3,219.9z"/>
				</g>
				<g>
					<path class="st1" d="M85.4,261.9c-0.1,0.3-0.2,0.5-0.3,0.7c-1.3,0.2-2.5,0.8-3.7,0.8c-1.3,0-2.6-0.7-3.6-1.3
						c-1-0.6-2-1.4-2.6-2.5c-0.5-1.1-0.3-2.3,0.5-3.2c1-1.3,2.6-1.1,4-1.7c-0.4-0.7-1.2-1.1-1.8-1.6c-0.4-0.4-1.1-0.9-1.2-1.5
						c-0.1-0.7,0.7-1,1.3-1.2c1.3-0.3,2.5,0.2,3.8,0c1.8-0.4,4.9-4.3,1.9-5c-0.8-0.2-1.7-0.1-2.4-0.4c-0.7-0.3-1.1-1-1-1.8
						c0-1.1,0.6-2.2,1.2-3.1c0.5-0.8,1.1-1.5,1.7-2.2c0.9-0.4,1.9-0.7,2.9-0.8c0.5-0.1,1.1-0.1,1.7-0.1c0.5,0.1,0.9,0.3,1.4,0.6
						c1,0.7,1.6,1.8,2.1,2.9c0.4,0.8,0.6,1.7,1.1,2.5c0.5,0.8,1.1,1.4,1.6,2.1c0.9,1,1.7,2.2,2,3.5c0,0.1,0,0.1,0,0.2
						c-0.2,1-0.6,2.1-1.2,3c-1.4,2.2-3.5,3.4-5.8,4.5c-0.9,0.4-1.9,0.9-2.5,1.7c-0.4,0.6-0.6,1.3-0.7,2.1c-0.1,0.5-0.2,1.1-0.3,1.6
						C85.4,261.7,85.4,261.8,85.4,261.9z"/>
				</g>
				<g>
					<path class="st1" d="M59.7,232.5c0.5,1.4,2,2.4,1.7,4.1c-0.2,0.8-0.1,1.6-0.1,2.3c0,0-0.1-0.1-0.1-0.1c-0.2-0.1-0.6-0.1-0.8,0
						c-0.2,0.1-0.3,0.3-0.3,0.4c0-0.1,0-0.3-0.1-0.4c-0.2-1.1-0.6-2.2-0.8-3.3c-0.4-2.1-0.4-4.4-1.5-6.3c-0.1,1.4-0.2,2.8-0.4,4.2
						c-0.2,1.2-0.2,2.4-0.6,3.6c-0.2,0.5-0.5,0.9-1.1,1c-0.3,0-0.7,0-1,0c-0.1,0-0.5-0.1-0.6,0c0,0.1,0,0.3,0,0.3
						c0.2,0.5,0.7,0.8,1.1,1.1c0.5,0.3,1,0.7,1.4,1.1c0.8,0.7,1.1,1.7,0.3,2.6c-0.8,0.9-1.9,1.1-3,1.6c-1.4,0.6-2.2,1.7-3.1,2.8
						c0.6,0.1,1.3,0.2,1.9,0.2c0.7,0,1.5,0,2.2-0.2c1.1-0.4,1.9-1.5,3.1-1.5c0.1,0,0.1,0.1,0.1,0.1c-0.3,1.3-0.8,2.4-1.8,3.4
						c-0.9,0.9-1.9,1.6-2.8,2.5c-0.9,1-1.5,2.3-2.5,3.2c-1.1,0.9-2.5,1.3-3.7,2.1c-0.4,0.3-0.8,0.6-1.1,0.9
						c-0.4,0.2-0.9,0.3-1.3,0.5c-0.6,0.1-1.1,0.1-1.7,0.1c-0.5,0.2-1,0.3-1.6,0.4c-0.9,0.1-1.8,0.1-2.7-0.1
						c-0.4-0.1-0.7-0.2-1.1-0.3c-0.1,0-0.2-0.1-0.3-0.1c-0.9-0.4-1.8-1-2.3-1.9c0,0,0,0,0,0c-0.1-0.1-0.1-0.2-0.1-0.3
						c0,0,0-0.1,0-0.1c0,0,0-0.1,0-0.1c0-0.2,0-0.4,0.1-0.6c0.7,0.2,1.4,0.2,2.1-0.1c0.8-0.3,1.5-0.2,2.2,0.1
						c0.6,0.2,1.1,0.5,1.7,0.6c1,0.2,1.9-0.2,2.7-0.9c0.4-0.4,0.8-0.8,1.3-1.1c0.4-0.3,0.9-0.4,1.4-0.6c0.5-0.2,0.7-0.3,0.7-0.9
						c0-0.4-0.1-0.9-0.3-1.2c-0.1-0.2-0.4-0.4-0.4-0.7c-0.1-0.5,0.2-0.5,0.5-0.7c0.4-0.3,0.5-0.9,0.7-1.4c0.2-0.6,0.4-1.2,0.6-1.7
						c0.4-0.8,1-1,1.7-1.1c0.8-0.1,1.6-0.3,2.3-0.8c0.4-0.3,0.5-0.7,0.7-1.1c0.2-0.5,0.6-0.9,1.1-1.1c0.7-0.2,1.8-0.1,2.2-0.8
						c0.3-0.4,0.2-0.9-0.2-1.1c-0.5-0.4-1.3-0.4-1.9-0.5c-1.1-0.2-2.2-0.5-3.3-0.8c-1.4-0.4-2.9-0.7-4.3-1.1
						c-1.3-0.4-2.6-0.7-3.9-1.2c-1.1-0.5-2.3-1-3-2c-0.3-0.4-0.5-1-0.7-1.5c0-0.1-0.1-0.1-0.1-0.2c0,0,0,0,0,0c0,0,0,0,0,0
						c0-0.1-0.1-0.2-0.1-0.3c0,0,0,0,0-0.1c0,0,0,0,0,0c1.1,0.5,2.3,0.9,3.5,1.3c0.6,0.2,1.1,0.4,1.7,0.7c0.6,0.3,1.1,0.7,1.7,1.1
						c0.4,0.3,0.9,0.4,1.3,0.5c0.7,0.1,1.4,0.1,2.1,0.3c1.1,0.4,2.3,1.2,3.5,0.9c0.1,0,0.1-0.1,0.1-0.1c-0.3-1-0.3-2-0.4-3
						c-0.1-0.8-0.3-1.6-0.6-2.4c-0.3-0.8-0.6-1.5-0.7-2.4c-0.1-1,0-1.9,0.4-2.8c0.3-0.8,0.8-1.5,1-2.3c0.2-0.7,0.2-1.3,0.1-2
						c-0.1-1.3-0.4-2.7,0.2-3.7c0,0,0,0,0,0c0,0,0.1,0,0.1,0c0,0,0.1,0,0.1,0c0.1,0,0.1,0,0.2,0c0,0,0.1,0,0.1,0c0.1,0,0.1,0,0.2,0
						c0,0,0.1,0,0.1,0c0.1,0,0.2,0,0.3,0c0,0,0.1,0,0.1,0c0.1,0,0.1,0,0.2,0c0,0,0.1,0,0.1,0c0.1,0,0.1,0,0.2,0.1c0,0,0.1,0,0.1,0
						c0.1,0,0.1,0,0.2,0.1c0,0,0.1,0,0.1,0c0.1,0,0.1,0.1,0.2,0.1c0,0,0.1,0,0.1,0c0.1,0,0.2,0.1,0.3,0.1c0,0,0,0,0.1,0
						c0.1,0,0.1,0.1,0.2,0.1c0,0,0.1,0,0.1,0.1c0.1,0,0.1,0.1,0.2,0.1c0,0,0.1,0,0.1,0.1c0.1,0,0.1,0.1,0.2,0.1c0,0,0.1,0,0.1,0.1
						c0.1,0,0.1,0.1,0.2,0.1c0,0,0,0,0.1,0.1c0.1,0.1,0.1,0.1,0.2,0.2c1.4,1.4,2,3.2,2.2,5c0.1,0.4,0.1,0.9,0.1,1.3c0,0,0,0,0,0
						c0,0,0,0,0,0c0.1-0.2,0.2-0.5,0.3-0.7c0,0,0,0,0,0c0.1-0.2,0.2-0.5,0.3-0.7c0,0,0,0,0,0c0.1-0.2,0.2-0.5,0.3-0.7c0,0,0,0,0,0
						c0.1-0.2,0.3-0.5,0.4-0.7l0,0l0,0c-0.3,1.1-0.7,2.2-0.9,3.4C59.4,229.2,59.1,231.1,59.7,232.5z"/>
				</g>
				<g>
					<path class="st1" d="M67.6,244.2c0-0.4,0.1-0.7,0-0.9c0,0-0.1,0.5-0.3,1.1c0,0,0,0,0,0c0,0,0,0,0-0.1c0.2-1.2,0.2-2.5,0.2-3.7
						c0.2,0,0.4,0,0.7,0c-0.1,0.6-0.2,1.6-0.5,2.9C67.7,243.7,67.6,243.9,67.6,244.2z"/>
				</g>
				<g>
					<path class="st1" d="M35,255.8C35,255.8,35,255.8,35,255.8C35,255.8,35,255.8,35,255.8c0-0.1-0.1-0.2-0.1-0.3h0l0,0
						c0,0,0,0,0,0C34.9,255.6,35,255.7,35,255.8z"/>
				</g>
				<g>
					<path class="st1" d="M80.2,243.1c0,0.8,0.3,1.5,1,1.8c0.7,0.3,1.6,0.2,2.4,0.4c3,0.7-0.1,4.6-1.9,5c-1.3,0.2-2.5-0.3-3.8,0
						c-0.5,0.1-1.3,0.5-1.3,1.2c0.1,0.6,0.8,1.1,1.2,1.5c0.6,0.5,1.4,1,1.8,1.6c-1.3,0.6-3,0.5-4,1.7c-0.8,0.9-1,2.1-0.5,3.2
						c0.5,1.1,1.5,1.9,2.6,2.5c1.1,0.7,2.4,1.3,3.6,1.3c1.3,0,2.5-0.6,3.7-0.8c0,0,0,0,0,0c0,0,0,0.1-0.1,0.1c0,0.1-0.1,0.1-0.1,0.2
						c0,0.1-0.1,0.1-0.1,0.2c0,0-0.1,0.1-0.1,0.1c-0.1,0.1-0.1,0.2-0.2,0.3c0,0-0.1,0.1-0.1,0.1c-0.1,0.1-0.1,0.1-0.2,0.2
						c0,0-0.1,0.1-0.1,0.1c-0.1,0.1-0.1,0.1-0.2,0.2c0,0-0.1,0.1-0.1,0.1c-0.1,0-0.1,0.1-0.2,0.1c0,0-0.1,0.1-0.1,0.1
						c-0.1,0-0.1,0.1-0.2,0.1c0,0-0.1,0.1-0.1,0.1c-0.1,0.1-0.2,0.1-0.2,0.1c0,0-0.1,0-0.1,0.1c-0.1,0.1-0.2,0.1-0.3,0.2
						c0,0-0.1,0-0.1,0.1c-0.1,0-0.2,0.1-0.2,0.1c0,0-0.1,0-0.1,0.1c-0.1,0-0.2,0.1-0.2,0.1c-0.1,0-0.1,0-0.2,0.1
						c-0.1,0-0.2,0.1-0.2,0.1c0,0-0.1,0-0.2,0c-0.1,0-0.2,0-0.3,0.1c0,0-0.1,0-0.1,0c-0.1,0-0.3,0.1-0.4,0.1c-2,0.3-4.1-0.1-5.9-0.9
						c-0.3-0.1-0.5-0.2-0.8-0.4c-0.7-0.4-1.4-0.8-2-1.3c0,0,0-0.1,0-0.1c0-0.1,0-0.1-0.1-0.2c0-0.1-0.1-0.2-0.1-0.2
						c0-0.1,0-0.1-0.1-0.2c0-0.1-0.1-0.2-0.1-0.3c0-0.1,0-0.1-0.1-0.2c0-0.1-0.1-0.2-0.1-0.3c0,0,0-0.1-0.1-0.1
						c-0.1-0.1-0.1-0.3-0.2-0.4c-0.4-1.5-0.9-2.9-1.5-4.3c-0.1-0.3-0.2-0.6-0.4-0.9c0.1,0,0.1,0.1,0.2,0.1c-0.3-0.3-0.5-0.9-0.7-1.6
						c0.4,0.3,0.7,0.6,1,0.9c0.5,0.5,1,1,1.6,1.4c0.5,0.3,1.1,0.5,1.7,0.8c-0.2-0.8-0.9-2.1-0.1-2.8c0.4-0.4,1-0.4,1.1-1.1
						c0.1-0.5-0.2-0.9-0.4-1.4c-0.3-0.8-0.3-1.7,0.2-2.4c0.5-0.7,1.4-1.2,2.1-1.6c1-0.5,2.1-1.1,2.7-2.1c-1.8-1-0.4-3.8,0.2-5.3
						c0,0,0,0,0,0c0,0,0,0,0,0c0-0.1,0.1-0.2,0.1-0.3c0.2-0.5,0.8-2.3-0.3-2.2c-0.4,0.1-0.9,0.4-1.2,0.7c-0.5,0.4-1.1,0.9-1.5,1.4
						c-1,1-1.9,2.1-2.9,3.1c-0.8,0.8-1.5,1.5-2.6,1.6c-0.3,0-0.5,0-0.8,0c0.1-0.5,0.2-0.9,0.3-1.3c0-0.1,0-0.3,0.1-0.4
						c0-0.1,0-0.3,0-0.4c0-0.3,0.1-0.5,0.1-0.8c0-0.2,0-0.5,0-0.7c0-0.2,0-0.4,0-0.6c0,0,0,0,0-0.1c0.1,0,0.2,0,0.3-0.1
						c0,0,0.1,0,0.1-0.1c0,0,0,0,0.1-0.1c0,0,0,0,0,0c0,0,0.1-0.1,0.1-0.1c0,0,0,0,0,0c0.1-0.1,0.2-0.3,0.2-0.4
						c0.1-0.2,0.3-0.4,0.4-0.6c0.2-0.5,0.3-1.1,0.5-1.6c0.2-0.6,0.5-1.2,0.9-1.8c0.4-0.6,0.9-1.2,1.6-1.5c0.7-0.4,1.5-0.2,2.2-0.2
						c1,0,1.6-0.3,2.1-1.2c0.9-1.8,0.4-3.9,1.1-5.8c0.4-1.1,1.6-4.2,3-2.8c0,0,0,0,0,0c0,0.1,0.1,0.1,0.1,0.2
						c0.1,0.1,0.1,0.2,0.2,0.3c0.9,2,1.5,4.2,1.4,6.3c0,0.4,0,0.7-0.1,1.1c0,0.2-0.1,0.5-0.1,0.7c0,0.1-0.1,0.2-0.1,0.4
						c-0.1,0.2-0.1,0.5-0.2,0.7c-0.2,0.6-0.4,1.2-0.7,1.7c-0.5,1-1.2,1.9-1.8,2.8c0.3-0.1,0.6-0.2,0.9-0.4c0,0,0.1,0,0.1-0.1
						c0.3-0.1,0.6-0.2,0.9-0.4c0,0,0,0,0,0c0,0,0,0,0,0c-0.6,0.7-1.2,1.5-1.7,2.2C80.8,240.9,80.2,241.9,80.2,243.1z"/>
				</g>
				<g>
					<path class="st1" d="M66.1,243.9c0-0.5-0.1-1-0.2-1.4c0.1,0,0.2-0.1,0.3-0.2c0,0,0.1-0.1,0.1-0.1c0,0,0,0,0,0
						c0,0,0-0.1,0.1-0.1c0,0,0,0,0,0c0,0,0-0.1,0-0.1c0,0,0,0,0,0c0,0,0-0.1,0-0.1l0,0l0,0c0-0.1,0-0.1,0-0.2c0-0.1,0-0.2-0.1-0.2
						c0,0,0-0.1,0.1-0.1c0.2-0.2,0.4-0.4,0.7-0.5c0,1.1-0.1,2.3-0.3,3.4C66.5,244.1,66.3,244,66.1,243.9z"/>
				</g>
				<g>
					<path class="st1" d="M35.1,256.2C35.1,256.2,35.1,256.1,35.1,256.2c0-0.1,0-0.1-0.1-0.1c0-0.1,0-0.1-0.1-0.2
						C35.1,256,35.1,256.1,35.1,256.2z"/>
				</g>
				<g>
					<path class="st1" d="M68.5,244.7c-0.1,0-0.3-0.1-0.4-0.1c0.1-0.3,0.1-0.7,0.2-1c0.2-1.3,0.2-2.4,0.2-3c0.1,0,0.2,0,0.2,0
						c0.3,0,0.6,0,0.9,0c-0.1,0.7-0.3,1.6-0.6,2.7C68.8,243.8,68.6,244.2,68.5,244.7z"/>
				</g>
				<g>
					<path class="st1" d="M60.5,240.7c0,0.2,0,0.4,0,0.5c0,0,0,0,0,0c-0.2-0.5-0.3-1.1-0.4-1.7c0.1,0.2,0.2,0.5,0.4,0.6c0,0,0,0,0,0
						c0,0,0,0,0,0C60.6,240.4,60.6,240.6,60.5,240.7z"/>
				</g>
				<g>
					<path class="st1" d="M62.7,243.7c0,0-0.1,0-0.1,0c0-0.6,0-1.3,0-1.9c0.5,0,0.8,0.3,1.4,0.5c0,0,0,0,0,0
						c-0.1,0.4-0.1,0.9-0.1,1.3C63.4,243.7,63.1,243.8,62.7,243.7z"/>
				</g>
				<g>
					<path class="st1" d="M65.2,242.3C65.2,242.4,65.3,242.4,65.2,242.3c0.1,0.1,0.1,0.1,0.1,0.1c0,0,0.1,0,0.1,0.1c0,0,0.1,0,0.1,0
						c0,0.3,0,0.7,0,1.2c-0.1,0-0.2-0.1-0.3-0.1c-0.3-0.1-0.6-0.1-0.8-0.2c0-0.4,0-0.7,0.1-1.1C64.7,242.5,65,242.4,65.2,242.3
						C65.2,242.3,65.2,242.3,65.2,242.3C65.2,242.3,65.2,242.3,65.2,242.3z"/>
				</g>
				<g>
					<path class="st1" d="M61.9,243.3c-0.4-0.3-0.7-0.6-0.9-1c-0.1-0.8-0.1-1.6-0.1-2.1c0.1,0,0.2-0.1,0.2-0.2c0.1,0,0.1,0,0.2-0.1
						c0,0,0,0,0.1-0.1c0,0,0,0,0,0c0.1,0.6,0.3,1.3,0.4,1.9c0,0,0,0.1,0.1,0.1C61.9,242.4,61.9,242.8,61.9,243.3z"/>
				</g>
				<g>
					<path class="st1" d="M68.6,248c0.1-0.3,0.2-0.6,0.3-0.9c0.3-0.7,0.5-1.5,0.7-2.2c0.3,0,0.5,0,0.8,0c1.2-0.1,1.9-0.8,2.6-1.6
						c1-1,1.9-2.1,2.9-3.1c0.5-0.5,1-1,1.5-1.4c0.3-0.3,0.8-0.6,1.2-0.7c1.1-0.1,0.5,1.7,0.3,2.2c0,0.1-0.1,0.2-0.1,0.3
						c-0.5,0.9-9.2,6.9-9.4,7C69.3,247.8,69,247.9,68.6,248z"/>
				</g>
				<g>
					<path class="st1" d="M63.6,248.6c0,0-0.1,0-0.1-0.1c-0.1-0.2-0.1-0.3-0.3-0.4c0-0.2-0.1-0.3-0.1-0.5c0-0.1-0.1-0.3-0.1-0.5
						c0.1,0,0.2,0,0.3-0.1c0,0,0.1,0,0.1-0.1c0,0,0,0,0,0c0,0,0,0,0.1-0.1c0,0,0,0,0,0c0,0,0,0,0.1-0.1c0,0,0,0,0,0
						c0,0,0-0.1,0.1-0.1l0,0l0,0c0-0.1,0.1-0.2,0.1-0.3c0-0.2-0.2-0.4-0.3-0.5c-0.2-0.1-0.4-0.1-0.6-0.1c-0.1-0.5-0.1-1-0.2-1.5
						c0-0.2,0-0.4,0-0.6c0,0,0.1,0,0.1,0c0.4,0.1,0.8,0,1.1-0.2c0,0,0,0.1,0,0.1c-0.1,1.3-0.1,2.5,0,3.6c0,0,0,0.1,0,0.1
						c0,0,0,0,0,0C63.7,247.8,63.6,248.2,63.6,248.6z"/>
				</g>
				<g>
					<path class="st1" d="M67.2,251.3c-0.1,0-0.1-0.1,0-0.2c0.6-0.8,0.6-1.4,1.4-1.9c0.4-0.3,0.6-0.6,1-0.9c0.6-0.3,8.3-6.1,9.3-7.7
						c-0.6,1.6-2,4.3-0.2,5.3c-0.6,1-1.7,1.6-2.7,2.1c-0.8,0.4-1.6,0.9-2.1,1.6c-0.5,0.7-0.6,1.6-0.2,2.4c0.2,0.4,0.5,0.9,0.4,1.4
						c-0.2,0.7-0.7,0.7-1.1,1.1c-0.7,0.7-0.1,1.9,0.1,2.8c-0.6-0.2-1.2-0.5-1.7-0.8c-0.7-0.4-1.1-0.9-1.6-1.4
						c-0.3-0.3-0.7-0.6-1-0.9C68.2,253.1,67.9,251.6,67.2,251.3z"/>
				</g>
				<g>
					<path class="st1" d="M68.1,244.6c0.1,0,0.3,0.1,0.4,0.1c-0.2,0.5-0.4,1-0.6,1.5c-0.1,0-0.1,0-0.2,0
						C67.8,245.6,67.9,245.1,68.1,244.6z"/>
				</g>
				<g>
					<path class="st1" d="M65.6,244.7c-0.3-0.3-0.7-0.5-1.1-0.2c0-0.2,0-0.5,0-0.7c0-0.1,0-0.2,0-0.2c0.3,0,0.5,0.1,0.8,0.2
						c0.1,0,0.2,0.1,0.3,0.1c0,0.2,0,0.4,0,0.7C65.6,244.5,65.6,244.6,65.6,244.7z"/>
				</g>
				<g>
					<path class="st1" d="M66.1,244.4c0-0.2,0-0.3,0-0.5c0.2,0.1,0.4,0.2,0.7,0.2c0,0,0,0,0,0.1c-0.1,0.5-0.2,1-0.3,1.5
						c-0.1,0.1-0.2,0.2-0.4,0.3C66.1,245.4,66.1,244.9,66.1,244.4z"/>
				</g>
				<g>
					<path class="st1" d="M67.3,244.4C67.3,244.4,67.3,244.4,67.3,244.4c0,0.1,0,0.1,0,0.1C67.3,244.5,67.3,244.4,67.3,244.4z"/>
				</g>
				<g>
					<path class="st1" d="M60.1,239.3C60.1,239.3,60.1,239.3,60.1,239.3c0,0.1,0,0.1,0,0.1c0,0,0,0,0,0c0,0,0,0.1,0,0.1
						c0,0,0,0,0,0.1c0.1,0.6,0.2,1.1,0.4,1.7c0,0.2,0,0.4,0,0.6c0,0.1,0,0.2,0,0.3c0,0.1,0,0.2,0,0.3c0,0.2,0,0.4,0,0.6
						c-0.7-1.6-1.4-3.4-1.4-3.9c-0.2,0.5,0.4,2.7,0.8,4.4c-0.2,0-0.4,0.1-0.5,0.3l0,0l0,0c0,0,0,0.1-0.1,0.1c0,0,0,0,0,0
						c0,0,0,0.1,0,0.1c-0.1,0.4,0.1,0.8,0.5,0.8c0,0,0.1,0,0.1,0c0,0,0,0,0,0c0,0,0,0,0,0c0,0.4,0.2,0.9,0.3,1.5
						c0.1,0.4,0.3,0.8,0.5,1.3c0,0.1-0.1,0.1-0.1,0.2c-0.1-0.2-0.2-0.4-0.3-0.6c-0.5-1-0.9-2.1-1.1-3.1c-0.3-1-0.5-1.9-0.7-2.6
						c0-0.1-0.1-0.2-0.1-0.3c0,0,0,0,0.1,0c0,0,0,0,0,0c0,0,0.1,0,0.1-0.1c0,0,0,0,0,0c0.1-0.1,0.1-0.2,0.2-0.3c0,0,0,0,0,0
						c0,0,0,0,0,0c0.1-0.2,0.1-0.5,0-0.7c-0.3-0.4-1.5-0.4-1.5,0.3c0,0,0,0,0,0c0,0,0,0.1,0,0.1c0,0.2,0.1,0.4,0.3,0.6
						c0,0.1,0.1,0.1,0.2,0.2c0,0,0.1,0,0.1,0.1c0,0,0,0,0,0c0,0,0,0,0.1,0c0,0.1,0,0.2,0,0.3c0,0.7,0.1,1.7,0.2,2.7
						c0.2,1.1,0.5,2.3,0.9,3.4c0.1,0.3,0.3,0.6,0.5,0.9c-0.4,0.2-0.9,0.3-1.3,0.3c0.3,0.2,0.5,0.4,0.6,0.7c0.1,0.5-0.1,1-0.5,1.4
						c-0.6,0.7-1.3,1.2-1.8,2c-0.1,0.1-0.1,0.1-0.1,0.2c-0.3,0.2-0.5,0.4-0.8,0.6c0,0-0.1,0-0.1,0.1c-1.2,0.7-2.4,1.4-3.7,1.9
						c-0.3,0.2-0.7,0.3-1,0.4c-0.1,0-0.2,0.1-0.3,0.1c-0.2,0.1-0.5,0.2-0.7,0.3c-0.1,0.1-0.3,0.1-0.4,0.1c-0.2,0.1-0.4,0.2-0.7,0.2
						c-0.1,0-0.3,0.1-0.4,0.1c-0.2,0.1-0.5,0.2-0.7,0.2c-0.5,0.2-1,0.3-1.4,0.5c0.3-0.3,0.7-0.6,1.1-0.9c1.2-0.8,2.6-1.2,3.7-2.1
						c1.1-0.9,1.6-2.2,2.5-3.2c0.8-0.9,1.9-1.6,2.8-2.5c0.9-0.9,1.5-2.1,1.8-3.4c0,0,0-0.1-0.1-0.1c-1.3,0-2,1.2-3.1,1.5
						c-0.7,0.2-1.5,0.2-2.2,0.2c-0.6,0-1.3-0.1-1.9-0.2c0.9-1.2,1.7-2.3,3.1-2.8c1.1-0.5,2.1-0.7,3-1.6c0.8-0.9,0.6-1.8-0.3-2.6
						c-0.4-0.4-0.9-0.7-1.4-1.1c-0.4-0.3-0.9-0.6-1.1-1.1c0-0.1-0.1-0.3,0-0.3c0.1-0.1,0.4,0,0.6,0c0.3,0,0.7,0.1,1,0
						c0.6-0.1,0.9-0.4,1.1-1c0.4-1.1,0.4-2.4,0.6-3.6c0.2-1.4,0.4-2.8,0.4-4.2c1.1,1.9,1.2,4.2,1.5,6.3c0.2,1.1,0.6,2.2,0.8,3.3
						C60,239,60,239.1,60.1,239.3C60.1,239.3,60.1,239.3,60.1,239.3C60.1,239.3,60.1,239.3,60.1,239.3z"/>
				</g>
				<g>
					<path class="st1" d="M61.7,245.7c-0.1-0.2-0.1-0.3-0.2-0.5c-0.3-0.9-0.4-1.9-0.5-2.7c0,0,0-0.1,0-0.1c0.2,0.4,0.5,0.7,0.9,1
						c0,0.3,0,0.7,0,1c0,0.5,0.1,1,0.1,1.5C61.9,245.8,61.8,245.8,61.7,245.7z"/>
				</g>
				<g>
					<path class="st1" d="M67.3,252.1c-0.2-0.3-0.4-0.5-0.7-0.7c0.1-0.1,0.2-0.2,0.2-0.3c0.2-0.2,0.4-0.5,0.6-0.8
						c0.4-0.7,0.8-1.4,1.2-2.3c0.4-0.1,0.8-0.2,0.9-0.3c0.1-0.1,8.8-6.1,9.4-7c0,0,0,0,0,0c0,0,0,0,0,0c-0.9,1.6-8.6,7.4-9.3,7.7
						c-0.4,0.2-0.6,0.6-1,0.9c-0.8,0.5-0.8,1.1-1.4,1.9c0,0.1,0,0.1,0,0.2c0.6,0.3,1,1.9,1.4,3.1c0.2,0.7,0.4,1.3,0.7,1.6
						c-0.1,0-0.1,0-0.2-0.1c-0.2-0.5-0.4-1-0.7-1.5C68.1,253.6,67.8,252.8,67.3,252.1z"/>
				</g>
				<g>
					<path class="st1" d="M58.5,251.3c0.3-0.4,0.6-0.9,0.5-1.4c-0.1-0.3-0.3-0.6-0.6-0.7c0.4,0,0.9-0.1,1.3-0.3
						c0.3,0.6,0.7,1.2,1.1,1.6c-0.6,0.3-1.3,0.7-1.8,1.1c-0.8,0.6-1.6,1.3-2.4,1.9c0-0.1,0.1-0.2,0.1-0.2
						C57.2,252.5,58,252,58.5,251.3z"/>
				</g>
				<g>
					<path class="st1" d="M61.7,249.3c-0.3-0.4-0.7-0.9-0.9-1.4c0-0.1,0.1-0.1,0.1-0.2c0.1,0.2,0.2,0.4,0.3,0.6
						C61.3,248.7,61.5,249,61.7,249.3z"/>
				</g>
				<g>
					<path class="st1" d="M63.6,248.6c0,0.2-0.1,0.4-0.1,0.6c-0.1-0.2-0.1-0.4-0.2-0.7c0-0.1-0.1-0.3-0.1-0.4
						c0.1,0.1,0.2,0.2,0.3,0.4C63.4,248.5,63.5,248.6,63.6,248.6z"/>
				</g>
				<g>
					<path class="st1" d="M67.2,247.6C67.2,247.6,67.2,247.6,67.2,247.6c0,0.1,0,0.1-0.1,0.2C67.2,247.7,67.2,247.7,67.2,247.6z"/>
				</g>
				<g>
					<path class="st1" d="M65,250.1c0-0.1,0.1-0.1,0.1-0.2c0,0,0,0,0,0.1c-0.1,0.2-0.2,0.4-0.2,0.6c0,0,0-0.1,0-0.1
						C64.9,250.3,65,250.2,65,250.1z"/>
				</g>
				<g>
					<path class="st1" d="M61.8,248c0.1,0.2,0.2,0.5,0.3,0.7C62,248.4,61.8,248.2,61.8,248c-0.4-0.5-0.7-1.1-0.9-1.6
						c-0.2-0.5-0.4-1-0.5-1.4c0,0,0,0,0,0c0,0,0,0,0,0c0,0,0.1,0,0.1-0.1c0,0,0,0,0,0c0,0,0,0,0-0.1c0,0,0,0,0,0c0,0,0,0,0,0
						c0,0,0,0,0,0c0-0.1,0.1-0.1,0.1-0.2c0-0.2-0.1-0.4-0.2-0.5c0,0-0.1-0.1-0.1-0.1c-0.1-0.1-0.2-0.1-0.3-0.1
						c-0.5-1.7-1-3.9-0.8-4.4c0,0.5,0.7,2.3,1.4,3.9c0.1,0.7,0.2,1.5,0.4,2.2C61.1,246.3,61.4,247.2,61.8,248z"/>
				</g>
				<g>
					<path class="st1" d="M67.4,244.4c0.1-0.5,0.2-1,0.3-1.1c0,0.1,0,0.5,0,0.9c-0.1,0.6-0.3,1.2-0.5,1.8c0.1-0.5,0.2-0.9,0.2-1.4
						C67.3,244.5,67.3,244.4,67.4,244.4z"/>
				</g>
				<g>
					<path class="st1" d="M63.1,250.1C63.1,250.1,63.1,250.1,63.1,250.1C63.1,250.1,63.1,250.1,63.1,250.1
						C63.1,250,63.1,250.1,63.1,250.1z"/>
				</g>
				<g>
					<path class="st1" d="M61.7,245.7c0.1,0.1,0.2,0.1,0.3,0.1c0.1,0.5,0.1,1,0.2,1.4C62,246.8,61.9,246.3,61.7,245.7z"/>
				</g>
				<g>
					<path class="st1" d="M63.8,247.3C63.8,247.4,63.8,247.4,63.8,247.3C63.8,247.4,63.8,247.4,63.8,247.3
						C63.8,247.4,63.8,247.4,63.8,247.3z"/>
				</g>
				<g>
					<path class="st1" d="M65.1,246.4c0.1,0,0.2-0.1,0.3-0.1c0,0.2-0.1,0.4-0.1,0.6c-0.1,0.6-0.3,1.3-0.5,1.8c0-0.5,0-1,0.1-1.5
						c0-0.3,0.1-0.6,0.1-0.8c0,0,0.1,0,0.1,0C65.1,246.4,65.1,246.4,65.1,246.4z"/>
				</g>
				<g>
					<path class="st1" d="M65.9,247c0.1-0.3,0.1-0.7,0.1-1.1c0.1-0.1,0.2-0.2,0.4-0.3c-0.2,0.9-0.4,1.6-0.6,2.4
						c-0.1,0.3-0.2,0.7-0.3,0.9C65.7,248.4,65.8,247.7,65.9,247z"/>
				</g>
				<g>
					<path class="st1" d="M48.3,220.6c-0.5-0.1-0.9-0.4-1.3-0.6c-1.1-0.6-2.5-0.9-3.6-0.1c-1,0.7-1.6,1.8-2.1,2.9
						c-0.7,1.3-1.5,2.6-2.2,3.9c-0.3,0.6-0.7,1.2-1.1,1.7c0,0,0,0,0,0c0,0,0-0.1,0-0.1c0-0.1,0-0.2,0-0.2c0-0.1,0-0.1,0-0.2
						c0-0.1,0-0.2,0-0.3c0-0.1,0-0.1,0-0.2c0-0.1,0-0.2,0.1-0.3c0,0,0-0.1,0-0.1c0-0.1,0.1-0.3,0.1-0.4c0.3-0.9,0.9-1.6,1.2-2.5
						c0.3-0.7,0.5-1.5,0.7-2.3c0.5-1.6,1.6-3,3.3-3.2c1.5-0.3,3,0.6,4.4,1.1c0.1,0,0.1,0.1,0.2,0.1c0.1,0,0.1,0,0.2,0.1c0,0,0,0,0,0
						c0.1,0,0.1,0,0.2,0.1c0,0,0,0,0,0c0.1,0,0.1,0,0.2,0.1c0,0,0,0,0,0c0.1,0,0.1,0,0.2,0c0,0,0,0,0,0c0.1,0,0.1,0,0.2,0
						c0,0,0,0,0,0c0.1,0,0.1,0,0.2,0c0,0,0,0,0.1,0c0.1,0,0.1,0,0.2,0c0,0,0,0,0.1,0C49.3,220.5,48.8,220.6,48.3,220.6z"/>
				</g>
				<g>
					<path class="st1" d="M78.2,220.1c-1.2,0.3-2.4,0.8-3.7,0.8c-0.7,0-1.3-0.3-1.8-0.8c-0.4-0.4-0.9-0.8-1.4-0.9
						c-0.7-0.2-1.3,0.2-1.9,0.5c-0.7,0.3-1.5,0.7-2.3,0.8c-0.8,0.2-1.6,0.2-2.3,0c0,0,0,0,0,0c0,0,0.1,0,0.2-0.1
						c0.1,0,0.2-0.1,0.2-0.1c0.1,0,0.2-0.1,0.3-0.1c0.1,0,0.2-0.1,0.2-0.1c0.1,0,0.3-0.1,0.4-0.1c0.1,0,0.1,0,0.2-0.1
						c0.2,0,0.4-0.1,0.6-0.1c0.3,0,0.7,0,1-0.2c0.1-0.1,0.1-0.1,0.2-0.2c0.1-0.1,0.1-0.2,0.1-0.2c0.1-0.1,0.2-0.2,0.3-0.3
						c0.1-0.1,0.2-0.2,0.3-0.3c0.7-0.6,1.6-0.8,2.4-0.8c0.1,0,0.2,0,0.3,0c0.2,0,0.4,0.1,0.6,0.1c0.2,0.1,0.4,0.1,0.6,0.2
						c0.2,0.1,0.4,0.2,0.6,0.3c0.1,0.1,0.2,0.1,0.3,0.2c0.2,0.1,0.3,0.2,0.5,0.4c0.1,0.1,0.2,0.1,0.2,0.2c0.3,0.3,0.6,0.6,0.9,0.9
						c0.1,0.1,0.1,0.2,0.2,0.2c0.5-0.4,1-0.8,1.6-1.2c1-0.6,2-0.5,2.7,0.4c0.1,0.1,0.2,0.2,0.2,0.3c0,0,0,0,0,0
						c0.1,0.1,0.1,0.2,0.2,0.3C79.6,219.9,78.9,219.9,78.2,220.1z"/>
				</g>
				<g>
					<path class="st1" d="M93.9,245c-0.6-0.7-1.2-1.3-1.6-2.1c-0.5-0.8-0.8-1.7-1.1-2.5c-0.5-1.1-1.1-2.2-2.1-2.9
						c-0.4-0.3-0.9-0.5-1.4-0.6c0,0,0,0,0,0c0.1,0,0.2,0,0.4,0c0,0,0.1,0,0.1,0c0.1,0,0.2,0,0.3,0c0,0,0.1,0,0.1,0
						c0.1,0,0.2,0,0.3,0.1c0,0,0,0,0.1,0c0.1,0,0.2,0.1,0.4,0.1c0,0,0.1,0,0.1,0c0.1,0,0.2,0.1,0.3,0.1c0,0,0.1,0,0.1,0
						c0.1,0,0.2,0.1,0.3,0.1c0,0,0,0,0,0c0.1,0,0.2,0.1,0.3,0.1c0,0,0.1,0,0.1,0c0.1,0,0.2,0.1,0.2,0.1c0,0,0.1,0,0.1,0.1
						c0.1,0.1,0.2,0.1,0.3,0.2c0,0,0,0,0,0c0.1,0.1,0.2,0.1,0.3,0.2c0,0,0.1,0,0.1,0.1c0.1,0.1,0.1,0.1,0.2,0.2c0,0,0.1,0,0.1,0.1
						c0.1,0.1,0.2,0.2,0.3,0.3c0.2,0.2,0.3,0.4,0.5,0.6c0.1,0.2,0.3,0.5,0.4,0.7c0.1,0.1,0.1,0.3,0.2,0.4c0.1,0.2,0.1,0.4,0.2,0.7
						c0.1,0.2,0.2,0.4,0.3,0.6c0.1,0.2,0.3,0.3,0.4,0.5c0.1,0.1,0.2,0.2,0.3,0.3c0.2,0.2,0.3,0.3,0.4,0.5c0.3,0.4,0.5,0.8,0.7,1.2
						c0.1,0.1,0.1,0.3,0.2,0.4c0.1,0.2,0.1,0.3,0.2,0.5c0,0.1,0,0.1,0,0.2c0,0.1,0.1,0.2,0.1,0.3c0,0.1,0,0.1,0,0.2
						c0,0.1,0,0.2,0.1,0.3c0,0.1,0,0.1,0,0.2c0,0.1,0,0.2,0,0.3c0,0.1,0,0.1,0,0.2c0,0.1,0,0.2,0,0.3c0,0.1,0,0.1,0,0.2
						c0,0.1,0,0.2,0,0.3c0,0.1,0,0.1,0,0.2c0,0.1,0,0.2,0,0.3c0,0.1,0,0.1,0,0.2c0,0.1,0,0.3-0.1,0.4c0,0,0,0,0,0.1c0,0,0,0,0,0
						c0-0.1,0-0.1,0-0.2C95.5,247.2,94.7,246.1,93.9,245z"/>
				</g>
				<g>
					<path class="st1" d="M35.4,236.6c0.3,0.8,0.8,1.6,1.3,2.3c0.6,0.9,1,1.8,1.3,2.9c0.6,2.1,1.3,4.3,0.6,6.4
						c-0.7,2-2.1,3.7-2.8,5.7c-0.2,0.5-0.3,1.1-0.5,1.6c0,0.2-0.1,0.4-0.1,0.6c0,0,0,0,0,0l0,0c0,0,0,0,0,0c0,0,0,0,0-0.1
						c0-0.1-0.1-0.2-0.1-0.3c0,0,0,0,0,0c0,0,0,0,0,0c0,0,0,0,0,0c0-0.1-0.1-0.2-0.1-0.3c0,0,0,0,0-0.1c0,0,0,0,0,0
						c0-0.1-0.1-0.3-0.1-0.4c0,0,0,0,0,0c0-0.3-0.1-0.6,0-0.8c0,0,0,0,0,0c0-0.1,0-0.3,0-0.4c0,0,0,0,0-0.1c0-0.1,0-0.3,0-0.4
						c0,0,0,0,0-0.1c0-0.1,0-0.3,0.1-0.4c0,0,0,0,0,0c0.1-0.6,0.3-1.2,0.4-1.8c0.1-0.6,0.2-1.2,0.1-1.8c-0.1-1.3-1.3-2-1.8-3.1
						c-0.1-0.2-0.1-0.4-0.2-0.6c-0.1-0.6-0.1-1.2,0-1.8c0-0.4,0.1-0.7,0.1-1c0-0.3,0-0.7-0.1-1c-0.2-1.4-0.7-2.8-0.3-4.3
						c0-0.1,0.1-0.2,0.1-0.3c0,0,0-0.1,0-0.1c0-0.1,0.1-0.1,0.1-0.2c0,0,0-0.1,0.1-0.1c0-0.1,0.1-0.1,0.1-0.2c0,0,0,0,0,0
						c0.1-0.1,0.1-0.2,0.2-0.2c0,0,0,0,0-0.1c0.1-0.1,0.1-0.1,0.2-0.2c0,0,0,0,0.1-0.1c0.1-0.1,0.1-0.1,0.2-0.2c0,0,0,0,0.1,0
						c0.1-0.1,0.2-0.1,0.3-0.2c0,0,0,0,0,0c0.1-0.1,0.2-0.1,0.3-0.1c0,0,0,0,0,0c0,0,0,0,0,0C35.1,235.6,35.2,236.1,35.4,236.6z"/>
				</g>
				<g>
					<path class="st1" d="M67.3,244.4c0,0,0,0.1,0,0.1c-0.1,0.5-0.2,1-0.2,1.4c-0.1,0.2-0.1,0.3-0.2,0.5c-0.3,0.9-0.7,1.8-1.1,2.6
						c-0.5,0.9-0.8,1.5-0.9,1.9c0-0.1,0-0.2,0-0.4c0.1-0.2,0.1-0.4,0.2-0.6c0,0,0,0,0-0.1c0.1-0.1,0.1-0.3,0.2-0.5
						c0.1-0.1,0.1-0.3,0.2-0.5c0.1-0.3,0.2-0.6,0.3-0.9c0.2-0.7,0.4-1.5,0.6-2.4c0.1-0.5,0.2-1,0.3-1.5c0,0,0,0,0-0.1
						c0.2-1.1,0.3-2.3,0.3-3.4c0-0.2,0-0.5,0-0.7c0-0.2,0-0.3,0-0.5c0-0.2,0-0.3,0-0.5c0-0.3,0-0.6-0.1-0.9c0-0.3,0-0.5-0.1-0.8
						c0-0.2-0.1-0.5-0.1-0.7c0-0.1,0-0.2,0-0.3c0-0.1,0-0.2,0-0.3c0-0.1,0-0.2,0-0.3c0,0,0.1,0,0.1,0c0,0,0,0,0.1,0c0,0,0,0,0,0
						c0,0.1,0.1,0.2,0.1,0.3c0,0.1,0,0.2,0.1,0.3c0,0.1,0,0.2,0.1,0.3c0,0.2,0.1,0.4,0.1,0.7c0,0.2,0.1,0.5,0.1,0.8
						c0,0.3,0.1,0.6,0.1,0.9c0,0.2,0,0.3,0,0.5c0,0.2,0,0.3,0,0.5c0,0.2,0,0.4,0,0.6C67.6,241.8,67.5,243,67.3,244.4
						C67.3,244.3,67.3,244.3,67.3,244.4z"/>
				</g>
				<g>
					<path class="st1" d="M62.5,243.7c0,0.2,0,0.4,0,0.6c0,0.5,0.1,1,0.2,1.5c-0.2,0-0.5,0.1-0.6,0.4c0,0,0,0.1,0,0.1c0,0,0,0,0,0
						c0,0,0,0,0,0c0,0,0,0.1,0,0.1c0,0,0,0,0,0c0,0,0,0.1,0,0.1c0,0,0,0,0,0c0,0,0,0,0,0.1c0.1,0.3,0.4,0.5,0.8,0.5
						c0,0.2,0.1,0.3,0.1,0.5c0,0.2,0.1,0.4,0.1,0.5c0,0.1,0.1,0.3,0.1,0.4c0.1,0.3,0.1,0.5,0.2,0.7c0,0,0,0,0,0c0,0.4,0,0.8,0,1.2
						c0,0,0,0,0,0c-0.1-0.1-0.2-0.2-0.3-0.4c0,0,0,0,0,0c0.1,0.1,0.2,0.1,0.2,0c0.1-0.1,0.1-0.2,0-0.5c-0.1-0.2-0.2-0.4-0.3-0.7
						c-0.1-0.2-0.2-0.3-0.3-0.5c-0.1-0.2-0.2-0.4-0.3-0.7c-0.1-0.1-0.1-0.3-0.2-0.4c-0.1-0.4-0.2-0.9-0.2-1.4
						c-0.1-0.5-0.1-1-0.1-1.5c0-0.3,0-0.7,0-1c0-0.5,0-1,0.1-1.5c0-0.4,0.1-0.8,0.2-1.2c0-0.1,0-0.3,0.1-0.4c0-0.1,0.1-0.3,0.1-0.4
						c0.1-0.3,0.1-0.5,0.2-0.8c0.1-0.2,0.1-0.5,0.2-0.7c0.1-0.2,0.1-0.4,0.2-0.6c0-0.1,0.1-0.2,0.1-0.2c0,0,0,0,0,0
						c0.1,0,0.2,0,0.2,0c0,0,0,0.1,0,0.1c0,0.1,0,0.2-0.1,0.3c0,0.2-0.1,0.4-0.1,0.6c0,0.2-0.1,0.4-0.1,0.7
						c-0.1,0.2-0.1,0.5-0.1,0.7c0,0.1,0,0.3-0.1,0.4c0,0.1,0,0.3,0,0.4c0,0.3-0.1,0.7-0.1,1C62.5,242.4,62.5,243,62.5,243.7z"/>
				</g>
				<g>
					<path class="st1" d="M62.7,249.5c-0.2-0.3-0.4-0.6-0.6-0.9c-0.1-0.2-0.2-0.4-0.3-0.7c-0.3-0.7-0.6-1.6-0.9-2.6
						c-0.2-0.7-0.3-1.5-0.4-2.2c0-0.2,0-0.4,0-0.6c0-0.1,0-0.2,0-0.3c0-0.1,0-0.2,0-0.3c0-0.2,0-0.4,0-0.6c0,0,0,0,0,0
						c0-0.2,0-0.4,0-0.5c0-0.2,0-0.3,0.1-0.5c0,0,0,0,0,0c0.1,0,0.2,0,0.3,0c0,0.5,0,1.3,0.1,2.1c0,0,0,0.1,0,0.1
						c0.1,0.9,0.3,1.8,0.5,2.7c0,0.2,0.1,0.3,0.2,0.5c0.2,0.5,0.4,1.1,0.6,1.5c0.1,0.1,0.1,0.3,0.2,0.4c0.1,0.3,0.2,0.5,0.3,0.7
						c0.1,0.2,0.2,0.4,0.3,0.5c0.2,0.3,0.3,0.5,0.3,0.7c0.1,0.3,0.1,0.5,0,0.5c0,0-0.1,0-0.2,0c0,0,0,0,0,0
						C63,249.9,62.9,249.7,62.7,249.5z"/>
				</g>
				<g>
					<path class="st1" d="M64.9,250.4c0-0.4-0.1-0.8-0.1-1.2c0-0.2,0-0.3,0-0.5c0.2-0.6,0.4-1.2,0.5-1.8c0-0.2,0.1-0.4,0.1-0.6
						c0.1,0,0.1-0.1,0.2-0.1c0.1-0.1,0.2-0.2,0.3-0.4c0,0,0,0,0-0.1c0,0,0,0,0,0c0.1-0.2,0-0.5-0.1-0.7c0-0.2-0.1-0.3-0.2-0.4
						c0-0.1,0-0.2,0-0.2c0-0.2,0-0.5,0-0.7c0-0.5,0-0.9,0-1.2c0.1,0,0.2,0,0.3,0c0.1,0.4,0.2,0.8,0.2,1.4c0,0.2,0,0.3,0,0.5
						c0,0.5,0,1,0,1.6c0,0.4-0.1,0.7-0.1,1.1c-0.1,0.7-0.3,1.4-0.5,2c-0.1,0.2-0.1,0.3-0.2,0.5c-0.1,0.2-0.1,0.3-0.2,0.5
						c0,0.1-0.1,0.1-0.1,0.2C65,250.2,64.9,250.3,64.9,250.4z"/>
				</g>
				<g>
					<path class="st1" d="M68.1,244.6c-0.1,0.5-0.2,1-0.4,1.6c-0.4,0-0.8,0.3-0.8,0.7c0,0,0,0.1,0,0.1c0,0.3,0.2,0.5,0.4,0.6
						c0,0.1,0,0.1-0.1,0.2c-0.3,0.6-0.7,1.2-1,1.7c-0.2,0.3-0.3,0.6-0.5,0.8c-0.2,0.2-0.3,0.4-0.4,0.6c0,0,0,0.1-0.1,0.1
						c0,0,0,0-0.1,0c-0.1,0-0.1,0-0.2,0c0-0.1,0-0.1,0-0.2c0.2-0.4,0.5-1,0.9-1.9c0.3-0.7,0.7-1.6,1.1-2.6c0.1-0.2,0.1-0.3,0.2-0.5
						c0.2-0.6,0.4-1.2,0.5-1.8c0.1-0.2,0.1-0.4,0.1-0.6c0.3-1.3,0.4-2.4,0.5-2.9c0,0,0-0.1,0-0.1c0,0,0.1,0,0.1,0c0,0,0,0.1,0,0.1
						c0,0.6,0,1.7-0.2,3C68.2,243.9,68.1,244.3,68.1,244.6z"/>
				</g>
				<g>
					<path class="st1" d="M61.7,249.3c-0.2-0.3-0.4-0.6-0.6-1c-0.1-0.2-0.2-0.4-0.3-0.6c-0.2-0.4-0.4-0.9-0.5-1.3
						c-0.2-0.6-0.3-1.1-0.3-1.5c0,0,0.1,0,0.1,0c0,0,0,0,0,0c0,0,0.1,0,0.1,0c0,0,0,0,0,0c0,0,0,0,0,0c0.1,0.4,0.3,0.9,0.5,1.4
						c0.2,0.6,0.5,1.2,0.9,1.7c0.1,0.2,0.2,0.4,0.4,0.6c0.2,0.3,0.4,0.6,0.6,0.9c0.2,0.2,0.3,0.4,0.4,0.5c0,0,0,0,0,0
						c0.1,0.1,0.2,0.3,0.3,0.4c0,0-0.1,0-0.1,0c-0.3-0.1-0.5-0.1-0.8-0.2c-0.1-0.1-0.3-0.3-0.4-0.4C62,249.7,61.8,249.5,61.7,249.3z
						"/>
				</g>
				<g>
					<path class="st1" d="M64.4,243.7c0,0.2,0,0.5,0,0.7c0,0-0.1,0-0.1,0.1c-0.1,0-0.1,0.1-0.2,0.1l0,0c0,0,0,0,0,0
						c0,0,0,0.1-0.1,0.1c0,0,0,0,0,0c0,0,0,0.1-0.1,0.1c0,0,0,0,0,0c0,0,0,0.1,0,0.1c0,0,0,0,0,0c0,0,0,0.1,0,0.1c0,0,0,0,0,0
						c0,0,0,0.1,0,0.1c0,0,0,0,0,0c0,0.1,0,0.2,0,0.3c0,0,0,0,0,0c0,0,0,0,0,0.1c0,0,0,0,0,0c0,0,0,0,0,0.1c0,0,0,0,0,0.1
						c0,0,0,0,0,0.1c0,0,0,0,0,0.1c0,0,0,0,0,0.1c0,0,0,0,0,0.1c0,0,0,0,0,0c0,0,0,0,0,0.1c0,0,0,0,0,0c0,0,0,0,0,0.1c0,0,0,0,0,0
						c0,0,0,0,0,0c-0.1,0.3-0.2,0.6-0.3,1c0,0.1-0.1,0.2-0.1,0.3c0,0,0,0,0,0c0,0,0-0.1,0-0.1c-0.1-1-0.1-2.3,0-3.6c0,0,0-0.1,0-0.1
						c0-0.4,0.1-0.9,0.1-1.3c0.1-0.8,0.2-1.6,0.4-2.3c0.3-1.2,0.6-2.3,0.8-3c0.1,0,0.2,0,0.3,0c-0.2,0.7-0.4,1.8-0.6,3.1
						c-0.1,0.8-0.2,1.6-0.3,2.4c0,0.4,0,0.7-0.1,1.1C64.4,243.6,64.4,243.6,64.4,243.7z"/>
				</g>
				<g>
					<path class="st1" d="M68.6,248c-0.4,0.8-0.8,1.6-1.2,2.3c-0.2,0.3-0.4,0.6-0.6,0.8c-0.1,0.1-0.2,0.2-0.2,0.3
						c-0.4-0.3-0.9-0.4-1.4-0.4c0,0,0-0.1,0.1-0.1c0.1-0.2,0.2-0.4,0.4-0.6c0.2-0.2,0.3-0.5,0.5-0.8c0.3-0.5,0.6-1.1,1-1.7
						c0-0.1,0.1-0.1,0.1-0.2c0.3,0.2,0.6,0.2,0.9,0c0.3-0.1,0.5-0.4,0.4-0.7c0-0.1,0-0.1-0.1-0.2c0,0,0,0,0,0c0,0,0-0.1-0.1-0.1
						c0,0,0,0,0,0c0,0,0,0,0,0c-0.1-0.1-0.1-0.1-0.2-0.1c0-0.1-0.1-0.1-0.2-0.2c0,0-0.1-0.1-0.2-0.1c0.2-0.5,0.4-1,0.6-1.5
						c0.2-0.5,0.3-0.9,0.4-1.3c0.3-1,0.5-2,0.6-2.7c0-0.1,0-0.2,0.1-0.3c0,0.1,0.1,0.1,0.1,0.1c0,0,0.1,0,0.1,0.1
						c0.1,0,0.1,0.1,0.2,0.1c0,0,0,0,0,0c0,0,0,0,0,0.1c0,0.2,0,0.4,0,0.6c0,0.2,0,0.4,0,0.7c0,0.2,0,0.5-0.1,0.8c0,0.1,0,0.3,0,0.4
						c0,0.1,0,0.3-0.1,0.4c-0.1,0.4-0.2,0.9-0.3,1.3c-0.2,0.7-0.4,1.5-0.7,2.2C68.8,247.4,68.7,247.7,68.6,248z"/>
				</g>
				<g>
					<path class="st1" d="M63.5,249.2c0-0.2,0-0.4,0.1-0.6c0.1-0.4,0.1-0.8,0.2-1.2c0,0,0,0,0,0c0-0.1,0-0.2,0.1-0.3
						c0.1-0.4,0.2-0.7,0.3-1c0,0,0,0,0.1,0.1c0,0,0.1,0.1,0.1,0.1c0,0,0.1,0,0.1,0.1c0.1,0,0.1,0.1,0.2,0.1c0.1,0,0.2,0,0.3,0
						c0,0.3-0.1,0.5-0.1,0.8c0,0.5-0.1,1-0.1,1.5c0,0.2,0,0.3,0,0.5c0,0.4,0,0.8,0.1,1.2c0,0,0,0.1,0,0.1c0,0.1,0,0.2,0,0.4
						c0,0.1,0,0.1,0,0.2c-0.2,0-0.4,0.1-0.6,0c-0.3-0.2-0.6-0.4-0.9-0.5C63.4,250.1,63.4,249.6,63.5,249.2
						C63.5,249.2,63.5,249.2,63.5,249.2z"/>
				</g>
				<g>
					<path class="st1" d="M59.2,248c-0.5-1.1-0.8-2.3-0.9-3.4c-0.2-1.1-0.2-2-0.2-2.7c0-0.1,0-0.2,0-0.3c0,0,0,0,0,0c0,0,0,0,0,0
						c0,0,0.1,0,0.1,0c0,0,0,0,0,0c0,0,0.1,0,0.1,0c0,0,0,0,0,0c0,0,0,0,0.1,0c0,0.1,0.1,0.2,0.1,0.3c0.2,0.7,0.4,1.6,0.7,2.6
						c0.3,1,0.7,2.1,1.1,3.1c0.1,0.2,0.2,0.4,0.3,0.6c0.3,0.5,0.6,1,0.9,1.4c0.1,0.2,0.3,0.3,0.4,0.5c0.2,0.2,0.3,0.3,0.4,0.4
						c-0.6,0-1.2,0.1-1.7,0.3c-0.4-0.5-0.8-1-1.1-1.6C59.5,248.6,59.4,248.3,59.2,248z"/>
				</g>
				<g>
					<path class="st1" d="M65.9,235c0-0.1,0-0.2,0.1-0.4c0.2-0.5,0.8-0.6,1.2-0.3c0,0,0.1,0.1,0.1,0.1c0.1,0.1,0.2,0.3,0.2,0.6
						c0,0,0,0.1,0,0.1C67.1,235.6,66.4,235.4,65.9,235z"/>
				</g>
				<g>
					<path class="st1" d="M67.2,235.6C67.2,235.6,67.2,235.6,67.2,235.6C67.2,235.6,67.2,235.6,67.2,235.6z"/>
				</g>
				<g>
					<path class="st1" d="M67.4,235.2C67.5,235.2,67.5,235.1,67.4,235.2C67.5,235.1,67.5,235.2,67.4,235.2z"/>
				</g>
				<g>
					<path class="st1" d="M67.3,235.5C67.3,235.5,67.3,235.4,67.3,235.5C67.3,235.4,67.3,235.5,67.3,235.5z"/>
				</g>
				<g>
					<path class="st1" d="M67,235.7C67.1,235.7,67.1,235.7,67,235.7C67.1,235.7,67.1,235.7,67,235.7z"/>
				</g>
				<g>
					<path class="st1" d="M66,235.3C66,235.3,66,235.4,66,235.3C66,235.4,66,235.3,66,235.3z"/>
				</g>
				<g>
					<path class="st1" d="M66.4,235.7C66.4,235.7,66.4,235.7,66.4,235.7C66.4,235.7,66.4,235.7,66.4,235.7z"/>
				</g>
				<g>
					<path class="st1" d="M66.9,235.8C66.9,235.7,66.9,235.7,66.9,235.8C66.9,235.7,66.9,235.7,66.9,235.8z"/>
				</g>
				<g>
					<path class="st1" d="M66.1,235.5C66.1,235.5,66.1,235.5,66.1,235.5C66.1,235.5,66.1,235.5,66.1,235.5z"/>
				</g>
				<g>
					<path class="st1" d="M66.2,235.6C66.2,235.6,66.3,235.6,66.2,235.6C66.3,235.6,66.2,235.6,66.2,235.6z"/>
				</g>
				<g>
					<path class="st1" d="M65.9,235.2C65.9,235.2,65.9,235.2,65.9,235.2C65.9,235.2,65.9,235.2,65.9,235.2z"/>
				</g>
				<g>
					<path class="st1" d="M67.4,235.4C67.4,235.3,67.4,235.3,67.4,235.4C67.4,235.3,67.4,235.3,67.4,235.4z"/>
				</g>
				<g>
					<path class="st1" d="M66.7,235.8C66.8,235.8,66.8,235.8,66.7,235.8C66.8,235.8,66.8,235.8,66.7,235.8z"/>
				</g>
				<g>
					<path class="st1" d="M68.1,240.1c-0.3-0.1-0.4-0.3-0.5-0.5c0.1-0.4,0.6-0.7,1-0.5c0.3,0.1,0.5,0.5,0.4,0.9
						C68.8,240.1,68.4,240.2,68.1,240.1z"/>
				</g>
				<g>
					<path class="st1" d="M68.7,240.4c0.1-0.1,0.2-0.2,0.2-0.3C68.9,240.2,68.8,240.3,68.7,240.4z"/>
				</g>
				<g>
					<path class="st1" d="M68.1,240.4c0.1,0,0.2,0.1,0.3,0.1c0,0,0,0,0,0c0,0-0.1,0-0.1,0C68.2,240.5,68.1,240.5,68.1,240.4z"/>
				</g>
				<g>
					<path class="st1" d="M69.2,240C69.2,240,69.2,240,69.2,240C69.2,240,69.2,240,69.2,240z"/>
				</g>
				<g>
					<path class="st1" d="M69.1,239.6C69.1,239.6,69.1,239.6,69.1,239.6C69.1,239.6,69.1,239.6,69.1,239.6z"/>
				</g>
				<g>
					<path class="st1" d="M69.1,239.4C69.1,239.4,69.1,239.4,69.1,239.4C69.1,239.4,69.1,239.4,69.1,239.4z"/>
				</g>
				<g>
					<path class="st1" d="M69.1,239.7C69.1,239.7,69.1,239.7,69.1,239.7C69.1,239.7,69.1,239.7,69.1,239.7z"/>
				</g>
				<g>
					<path class="st1" d="M69.1,239.3C69.1,239.3,69.1,239.3,69.1,239.3C69.1,239.3,69.1,239.3,69.1,239.3z"/>
				</g>
				<g>
					<path class="st1" d="M69.2,240.1C69.2,240.1,69.2,240.1,69.2,240.1C69.2,240.1,69.2,240.1,69.2,240.1z"/>
				</g>
				<g>
					<path class="st1" d="M69.1,239.9C69.1,239.9,69.1,239.9,69.1,239.9C69.1,239.9,69.1,239.9,69.1,239.9z"/>
				</g>
				<g>
					<path class="st1" d="M69.1,239.8C69.1,239.8,69.1,239.8,69.1,239.8C69.1,239.8,69.1,239.8,69.1,239.8z"/>
				</g>
				<g>
					<path class="st1" d="M69.6,238.7c-0.1,0-0.1,0.1-0.1,0.1C69.5,238.8,69.5,238.7,69.6,238.7z"/>
				</g>
				<g>
					<path class="st1" d="M69.3,238.9C69.3,239,69.3,239,69.3,238.9C69.3,239,69.3,239,69.3,238.9z"/>
				</g>
				<g>
					<path class="st1" d="M69.2,239.2C69.2,239.2,69.2,239.2,69.2,239.2C69.2,239.2,69.2,239.2,69.2,239.2z"/>
				</g>
				<g>
					<path class="st1" d="M69.4,238.8C69.4,238.9,69.4,238.9,69.4,238.8C69.4,238.9,69.4,238.9,69.4,238.8z"/>
				</g>
				<g>
					<path class="st1" d="M69.2,239C69.2,239.1,69.2,239.1,69.2,239C69.2,239.1,69.2,239.1,69.2,239z"/>
				</g>
				<g>
					<path class="st1" d="M69.4,239.4c0-0.2,0-0.5,0.1-0.7c0.1-0.1,0.1-0.1,0.2-0.1c0.3-0.1,0.7-0.1,1,0.2c0.3,0.3,0.3,0.7,0.2,1
						c0,0.1,0,0.1-0.1,0.2c-0.1,0.1-0.1,0.3-0.2,0.4c0,0,0.1-0.1,0.1-0.1C70.2,240.2,69.6,240,69.4,239.4z"/>
				</g>
				<g>
					<path class="st1" d="M70.6,240.4C70.6,240.4,70.6,240.4,70.6,240.4C70.6,240.4,70.6,240.4,70.6,240.4z"/>
				</g>
				<g>
					<path class="st1" d="M70.5,240.5C70.5,240.5,70.5,240.5,70.5,240.5C70.5,240.5,70.5,240.5,70.5,240.5z"/>
				</g>
				<g>
					<path class="st1" d="M70.4,240.6c-0.1,0-0.2,0.1-0.3,0.1c0,0,0,0,0,0C70.1,240.6,70.3,240.6,70.4,240.6z"/>
				</g>
				<g>
					<path class="st1" d="M70,240.6c-0.1,0-0.1,0-0.2-0.1C69.9,240.6,70,240.6,70,240.6z"/>
				</g>
				<g>
					<path class="st1" d="M65,242.1c0,0,0,0.1,0.1,0.1C65.1,242.1,65.1,242.1,65,242.1z"/>
				</g>
				<g>
					<path class="st1" d="M66.1,242.3c0,0,0.1-0.1,0.1-0.1C66.2,242.3,66.2,242.3,66.1,242.3z"/>
				</g>
				<g>
					<path class="st1" d="M66.2,242.2c0,0,0-0.1,0.1-0.1C66.3,242.1,66.2,242.2,66.2,242.2z"/>
				</g>
				<g>
					<path class="st1" d="M65.3,242.4C65.3,242.4,65.2,242.4,65.3,242.4C65.2,242.4,65.3,242.4,65.3,242.4z"/>
				</g>
				<g>
					<path class="st1" d="M66.3,241.8c-0.4,0.4-0.9,0.5-1.3,0.3c-0.1-0.3-0.1-0.7,0.2-0.9c0,0,0,0,0.1,0c0.1-0.2,0.4-0.3,0.6-0.2
						c0.2,0.1,0.3,0.2,0.3,0.4c0,0.1,0,0.2,0.1,0.2C66.3,241.6,66.3,241.7,66.3,241.8z"/>
				</g>
				<g>
					<path class="st1" d="M66.3,242.1c0,0,0-0.1,0-0.1C66.3,242,66.3,242,66.3,242.1z"/>
				</g>
				<g>
					<path class="st1" d="M65.4,242.5c0,0-0.1,0-0.1-0.1C65.3,242.5,65.4,242.5,65.4,242.5z"/>
				</g>
				<g>
					<path class="st1" d="M66.3,241.9c0,0,0-0.1,0-0.1C66.3,241.8,66.3,241.9,66.3,241.9z"/>
				</g>
				<g>
					<path class="st1" d="M65.2,242.3C65.2,242.3,65.2,242.3,65.2,242.3c0,0-0.1-0.1-0.1-0.1C65.1,242.2,65.2,242.3,65.2,242.3z"/>
				</g>
				<g>
					<path class="st1" d="M65.8,236.7C65.8,236.7,65.8,236.6,65.8,236.7C65.8,236.6,65.8,236.7,65.8,236.7z"/>
				</g>
				<g>
					<path class="st1" d="M64.6,236.3C64.6,236.3,64.6,236.3,64.6,236.3C64.6,236.3,64.6,236.3,64.6,236.3z"/>
				</g>
				<g>
					<path class="st1" d="M64.8,236.7C64.8,236.7,64.8,236.8,64.8,236.7C64.8,236.8,64.8,236.7,64.8,236.7z"/>
				</g>
				<g>
					<path class="st1" d="M64.6,236.4C64.6,236.4,64.6,236.5,64.6,236.4C64.6,236.4,64.6,236.4,64.6,236.4z"/>
				</g>
				<g>
					<path class="st1" d="M64.6,236.1C64.6,236.1,64.6,236.1,64.6,236.1C64.6,236.1,64.6,236.1,64.6,236.1z"/>
				</g>
				<g>
					<path class="st1" d="M64.7,236.6C64.7,236.6,64.7,236.6,64.7,236.6C64.7,236.6,64.7,236.6,64.7,236.6z"/>
				</g>
				<g>
					<path class="st1" d="M64.8,236.3c-0.1-0.1-0.2-0.2-0.2-0.3c0-0.1,0.1-0.3,0.2-0.4c0.3-0.4,0.9-0.2,1.2,0.1
						c0.2,0.3,0.2,0.7,0,0.9C65.5,236.7,65.1,236.7,64.8,236.3z"/>
				</g>
				<g>
					<path class="st1" d="M63.8,237.2C63.8,237.2,63.9,237.2,63.8,237.2C63.9,237.2,63.8,237.2,63.8,237.2z"/>
				</g>
				<g>
					<path class="st1" d="M62.5,236.7c0.1-0.3,0.4-0.6,0.8-0.5c0.4,0,0.7,0.4,0.7,0.9c0,0.1,0,0.1-0.1,0.2
						C63.3,237.4,62.8,237.2,62.5,236.7z"/>
				</g>
				<g>
					<path class="st1" d="M61.5,239.9C61.5,239.9,61.4,239.9,61.5,239.9C61.4,239.9,61.4,239.9,61.5,239.9
						C61.4,239.9,61.4,239.9,61.5,239.9z"/>
				</g>
				<g>
					<path class="st1" d="M60.9,239.9c-0.2,0-0.4-0.1-0.6-0.3c-0.1-0.1-0.2-0.2-0.2-0.4c0,0,0,0,0,0c0-0.2,0.1-0.4,0.3-0.4
						c0.2-0.1,0.6-0.1,0.8,0c0,0,0.1,0,0.1,0.1c0.3,0.2,0.4,0.7,0.2,1C61.3,239.9,61.1,240,60.9,239.9z"/>
				</g>
				<g>
					<path class="st1" d="M60.1,239.4c0,0,0-0.1,0-0.1C60.1,239.3,60.1,239.4,60.1,239.4z"/>
				</g>
				<g>
					<path class="st1" d="M60.1,239.6c0,0,0-0.1,0-0.1C60.1,239.5,60.1,239.5,60.1,239.6z"/>
				</g>
				<g>
					<path class="st1" d="M58.6,241.4C58.7,241.3,58.7,241.3,58.6,241.4C58.7,241.3,58.7,241.3,58.6,241.4z"/>
				</g>
				<g>
					<path class="st1" d="M58.7,241.3c0.1-0.1,0.1-0.2,0.2-0.3C58.9,241.1,58.8,241.2,58.7,241.3z"/>
				</g>
				<g>
					<path class="st1" d="M57.8,241.4c0,0,0.1,0,0.1,0.1C57.9,241.5,57.9,241.5,57.8,241.4z"/>
				</g>
				<g>
					<path class="st1" d="M58.6,241.4C58.6,241.4,58.5,241.4,58.6,241.4c-0.1,0-0.1,0.1-0.1,0.1C58.5,241.4,58.6,241.4,58.6,241.4z"
						/>
				</g>
				<g>
					<path class="st1" d="M57.7,240.9c-0.1-0.1-0.2-0.2-0.3-0.3c0-0.7,1.2-0.7,1.5-0.3c0.2,0.2,0.2,0.5,0,0.7
						C58.5,241.1,58.1,241.2,57.7,240.9z"/>
				</g>
				<g>
					<path class="st1" d="M58.3,241.5c0,0,0.1,0,0.1,0C58.4,241.5,58.4,241.5,58.3,241.5z"/>
				</g>
				<g>
					<path class="st1" d="M58.1,241.5C58.1,241.5,58.1,241.5,58.1,241.5c-0.1,0-0.1,0-0.1,0C58.1,241.5,58.1,241.5,58.1,241.5z"/>
				</g>
				<g>
					<path class="st1" d="M58.2,241.5c0,0,0.1,0,0.1,0C58.2,241.5,58.2,241.5,58.2,241.5z"/>
				</g>
				<g>
					<path class="st1" d="M59.4,244c0,0,0,0.1,0,0.1C59.4,244.1,59.4,244.1,59.4,244z"/>
				</g>
				<g>
					<path class="st1" d="M60,245C60,245,60,245,60,245C60,245,60,245,60,245z"/>
				</g>
				<g>
					<path class="st1" d="M59.5,243.9c0,0,0,0.1-0.1,0.1C59.4,244,59.5,243.9,59.5,243.9z"/>
				</g>
				<g>
					<path class="st1" d="M60.4,244.9C60.4,244.9,60.4,244.9,60.4,244.9C60.4,244.9,60.4,244.9,60.4,244.9z"/>
				</g>
				<g>
					<path class="st1" d="M60.3,243.8c0,0,0.1,0.1,0.1,0.1c0.2,0.1,0.3,0.3,0.2,0.5c0,0.1,0,0.1-0.1,0.2c-0.5,0.1-0.9-0.3-1.1-0.7
						c0.1-0.2,0.3-0.3,0.5-0.3C60.1,243.6,60.2,243.7,60.3,243.8z"/>
				</g>
				<g>
					<path class="st1" d="M60.5,244.8C60.5,244.8,60.5,244.8,60.5,244.8C60.5,244.8,60.5,244.8,60.5,244.8z"/>
				</g>
				<g>
					<path class="st1" d="M60.5,244.7C60.5,244.7,60.6,244.7,60.5,244.7C60.6,244.7,60.5,244.7,60.5,244.7z"/>
				</g>
				<g>
					<path class="st1" d="M60.1,245C60.1,245,60.1,245,60.1,245C60.1,245,60.1,245,60.1,245z"/>
				</g>
				<g>
					<path class="st1" d="M60.2,245C60.2,244.9,60.3,244.9,60.2,245C60.3,244.9,60.2,244.9,60.2,245z"/>
				</g>
				<g>
					<path class="st1" d="M65.6,244.7c0.1,0.1,0.2,0.3,0.2,0.4c0.1,0.2,0.1,0.4,0.1,0.7c-0.4,0.3-0.9,0.3-1.3-0.1
						c-0.3-0.3-0.4-0.7-0.4-1.1c0-0.1,0.1-0.1,0.2-0.1c0,0,0.1,0,0.1-0.1C64.8,244.2,65.3,244.3,65.6,244.7z"/>
				</g>
				<g>
					<path class="st1" d="M65.1,246.4c0.1,0,0.3-0.1,0.4-0.2c0,0-0.1,0.1-0.2,0.1C65.3,246.3,65.2,246.4,65.1,246.4z"/>
				</g>
				<g>
					<path class="st1" d="M65,246.4C65,246.4,65,246.4,65,246.4c-0.2,0-0.3,0-0.3,0C64.8,246.4,64.9,246.4,65,246.4z"/>
				</g>
				<g>
					<path class="st1" d="M64.2,244.6C64.1,244.6,64.1,244.7,64.2,244.6C64.1,244.7,64.1,244.6,64.2,244.6z"/>
				</g>
				<g>
					<path class="st1" d="M63.9,245.1c0,0.1,0,0.2,0,0.3C63.9,245.3,63.9,245.2,63.9,245.1z"/>
				</g>
				<g>
					<path class="st1" d="M63.9,245C63.9,245,63.9,245.1,63.9,245C63.9,245.1,63.9,245,63.9,245z"/>
				</g>
				<g>
					<path class="st1" d="M64,244.8C64,244.8,64,244.9,64,244.8C64,244.9,64,244.8,64,244.8z"/>
				</g>
				<g>
					<path class="st1" d="M64,244.9C64,244.9,64,245,64,244.9C64,245,64,244.9,64,244.9z"/>
				</g>
				<g>
					<path class="st1" d="M64,244.8C64.1,244.8,64.1,244.7,64,244.8C64.1,244.7,64.1,244.8,64,244.8z"/>
				</g>
				<g>
					<path class="st1" d="M63.9,245.4C63.9,245.4,63.9,245.5,63.9,245.4C63.9,245.5,63.9,245.4,63.9,245.4z"/>
				</g>
				<g>
					<path class="st1" d="M64.1,246C64.1,246,64.1,246,64.1,246C64.1,246,64.1,246,64.1,246z"/>
				</g>
				<g>
					<path class="st1" d="M64,245.9C64,245.9,64.1,245.9,64,245.9C64.1,245.9,64,245.9,64,245.9z"/>
				</g>
				<g>
					<path class="st1" d="M64,245.7C64,245.7,64,245.7,64,245.7C64,245.7,64,245.7,64,245.7z"/>
				</g>
				<g>
					<path class="st1" d="M64,245.8C64,245.8,64,245.8,64,245.8C64,245.8,64,245.8,64,245.8z"/>
				</g>
				<g>
					<path class="st1" d="M64.2,246.1C64.2,246.1,64.2,246.1,64.2,246.1C64.2,246.1,64.2,246.1,64.2,246.1z"/>
				</g>
				<g>
					<path class="st1" d="M63.9,245.6C63.9,245.6,63.9,245.6,63.9,245.6C63.9,245.6,63.9,245.6,63.9,245.6z"/>
				</g>
				<g>
					<path class="st1" d="M64.5,246.3c0.1,0,0.1,0.1,0.2,0.1C64.6,246.4,64.5,246.4,64.5,246.3z"/>
				</g>
				<g>
					<path class="st1" d="M63.3,247.1C63.3,247,63.3,247,63.3,247.1C63.3,247,63.3,247,63.3,247.1z"/>
				</g>
				<g>
					<path class="st1" d="M63.4,247C63.4,247,63.4,247,63.4,247C63.4,247,63.4,247,63.4,247z"/>
				</g>
				<g>
					<path class="st1" d="M63.5,246.8C63.5,246.8,63.5,246.8,63.5,246.8C63.5,246.8,63.5,246.8,63.5,246.8z"/>
				</g>
				<g>
					<path class="st1" d="M63.4,246.9C63.5,246.9,63.5,246.9,63.4,246.9C63.5,246.9,63.5,246.9,63.4,246.9z"/>
				</g>
				<g>
					<path class="st1" d="M63.3,246c0.2,0.1,0.3,0.3,0.3,0.5c0,0.1,0,0.2-0.1,0.3c-0.5,0.1-1-0.1-1.4-0.4c0,0,0-0.1,0-0.1
						c0.1-0.3,0.3-0.4,0.6-0.4C62.9,245.8,63.1,245.9,63.3,246z"/>
				</g>
				<g>
					<path class="st1" d="M62.1,246.4C62.1,246.5,62.2,246.5,62.1,246.4C62.2,246.5,62.1,246.5,62.1,246.4z"/>
				</g>
				<g>
					<path class="st1" d="M62.1,246.3c0,0,0,0.1,0,0.1C62.1,246.4,62.1,246.3,62.1,246.3z"/>
				</g>
				<g>
					<path class="st1" d="M63.6,246.7L63.6,246.7L63.6,246.7C63.5,246.8,63.5,246.8,63.6,246.7c-0.1,0.1-0.1,0.1-0.1,0.1
						c0,0,0,0-0.1,0.1c0,0,0,0,0,0c0,0,0,0-0.1,0.1c0,0,0,0,0,0c0,0-0.1,0-0.1,0.1c-0.1,0-0.2,0.1-0.3,0.1c-0.3,0-0.7-0.2-0.8-0.5
						c0,0,0,0,0-0.1c0,0,0,0,0,0c0,0,0-0.1,0-0.1c0,0,0,0,0,0c0,0,0-0.1,0-0.1c0,0,0,0,0,0c0,0,0,0,0,0
						C62.5,246.7,63,246.8,63.6,246.7z"/>
				</g>
				<g>
					<path class="st1" d="M68.5,246.7C68.5,246.7,68.4,246.6,68.5,246.7C68.4,246.6,68.5,246.7,68.5,246.7z"/>
				</g>
				<g>
					<path class="st1" d="M68.6,246.9c0-0.1,0-0.1-0.1-0.2C68.5,246.8,68.5,246.9,68.6,246.9z"/>
				</g>
				<g>
					<path class="st1" d="M67.7,247.3c-0.4,0-0.6-0.2-0.8-0.5c0,0,0,0.1,0,0.1c0-0.4,0.4-0.8,0.8-0.7c0.1,0,0.1,0,0.2,0
						c0.1,0,0.1,0,0.2,0.1c0.1,0.1,0.1,0.1,0.2,0.2c0.1,0,0.1,0.1,0.2,0.1C68.4,247,68,247.3,67.7,247.3z"/>
				</g>
				<g>
					<path class="st1" d="M66.7,235.8C66.7,235.8,66.7,235.8,66.7,235.8c-0.1,0-0.1,0-0.2,0c-0.1,0-0.1,0-0.2,0c0,0,0,0,0,0
						c0,0-0.1,0-0.1-0.1c0,0,0,0,0,0c0,0-0.1-0.1-0.1-0.1c0,0,0,0,0,0c0,0-0.1-0.1-0.1-0.1c0,0,0,0,0,0c0,0,0-0.1,0-0.1c0,0,0,0,0,0
						c0-0.1,0-0.1,0-0.2c0,0,0,0,0,0c0.4,0.4,1.2,0.6,1.6,0.1c0,0,0,0,0,0c0,0,0,0,0,0c0,0,0,0.1,0,0.1c0,0,0,0,0,0.1
						c0,0,0,0.1,0,0.1c0,0,0,0,0,0.1c0,0,0,0-0.1,0.1c0,0,0,0-0.1,0.1c0,0,0,0-0.1,0.1c0,0,0,0-0.1,0c0,0,0,0-0.1,0c0,0-0.1,0-0.1,0
						c0,0,0,0-0.1,0C66.9,235.8,66.9,235.8,66.7,235.8C66.8,235.8,66.8,235.8,66.7,235.8C66.8,235.8,66.8,235.8,66.7,235.8z"/>
				</g>
				<g>
					<path class="st1" d="M68.1,240.4c-0.3-0.1-0.5-0.5-0.4-0.8c0,0,0,0,0-0.1c0,0,0,0,0,0c0.1,0.2,0.2,0.4,0.5,0.5
						c0.3,0.1,0.7,0.1,0.8-0.2c0,0,0,0,0,0c0,0,0,0,0,0c0,0.1,0,0.1,0,0.2c0,0.1-0.1,0.2-0.2,0.3c-0.1,0.1-0.2,0.1-0.3,0.1
						C68.3,240.5,68.2,240.5,68.1,240.4z"/>
				</g>
				<g>
					<path class="st1" d="M70,240.6c-0.1,0-0.1,0-0.2-0.1c0,0-0.1,0-0.1-0.1c-0.1,0-0.1-0.1-0.1-0.1c0,0,0,0,0,0
						c-0.1,0-0.2-0.1-0.2-0.1c0,0-0.1-0.1-0.1-0.1c0,0,0,0,0,0c0,0,0,0-0.1-0.1c0,0,0,0,0,0c0,0,0,0,0-0.1c0,0,0,0,0,0
						c0,0,0,0,0-0.1c0,0,0,0,0,0c0,0,0,0,0-0.1c0,0,0,0,0,0c0,0,0-0.1,0-0.1c0,0,0,0,0,0c0,0,0-0.1,0-0.1c0,0,0,0,0,0c0,0,0,0,0-0.1
						c0,0,0,0,0-0.1c0,0,0,0,0-0.1c0,0,0,0,0-0.1c0,0,0,0,0-0.1c0,0,0,0,0-0.1c0,0,0,0,0,0c0,0,0,0,0-0.1c0,0,0,0,0,0
						c0,0,0,0,0.1-0.1c0,0,0,0,0,0c0,0,0.1-0.1,0.1-0.1c0,0,0,0,0,0l0,0c-0.1,0.2-0.1,0.4-0.1,0.7c0.1,0.6,0.7,0.8,1.3,0.9
						c0,0,0,0.1-0.1,0.1c0,0,0,0,0,0c0,0-0.1,0.1-0.1,0.1c0,0,0,0,0,0c0,0,0,0-0.1,0.1c0,0-0.1,0-0.1,0.1
						C70.3,240.6,70.1,240.6,70,240.6z"/>
				</g>
				<g>
					<path class="st1" d="M66.3,241.8L66.3,241.8L66.3,241.8c0,0,0,0.1,0,0.1c0,0,0,0,0,0c0,0,0,0.1,0,0.1c0,0,0,0,0,0
						c0,0,0,0.1-0.1,0.1c0,0,0,0,0,0c0,0,0,0.1-0.1,0.1c-0.1,0.1-0.2,0.2-0.3,0.2c-0.1,0-0.2,0-0.3,0c0,0-0.1,0-0.1,0
						c0,0-0.1,0-0.1-0.1c0,0,0,0,0,0c0,0-0.1-0.1-0.1-0.1c0,0,0,0,0,0c0,0-0.1-0.1-0.1-0.1c0,0,0,0,0,0c0,0,0-0.1-0.1-0.1
						c0,0,0,0,0,0l0,0C65.5,242.3,66,242.2,66.3,241.8z"/>
				</g>
				<g>
					<path class="st1" d="M64.9,236.9c0,0-0.1-0.1-0.1-0.1c0,0,0,0,0,0c0,0-0.1-0.1-0.1-0.1c0,0,0,0,0,0c0,0,0-0.1-0.1-0.1
						c0,0,0,0,0,0c0,0,0-0.1,0-0.1c0,0,0,0,0,0c0-0.1,0-0.1,0-0.2c0,0,0,0,0,0c0,0,0,0,0-0.1c0,0,0,0,0,0c0.1,0.1,0.1,0.2,0.2,0.3
						c0.3,0.3,0.7,0.4,1.1,0.3c0,0,0,0,0,0c0,0,0,0,0,0c0,0,0,0,0,0c0,0-0.1,0.1-0.1,0.1c-0.1,0.1-0.2,0.2-0.3,0.2
						c-0.1,0-0.2,0-0.3,0C65,236.9,65,236.9,64.9,236.9z"/>
				</g>
				<g>
					<path class="st1" d="M62.5,236.8c0,0,0-0.1,0-0.1c0,0,0,0,0,0c0.3,0.5,0.8,0.7,1.4,0.5l0,0l0,0c0,0,0,0-0.1,0.1
						c-0.1,0.2-0.3,0.4-0.6,0.4c0,0,0,0-0.1,0c-0.1,0-0.2,0-0.2,0C62.7,237.5,62.5,237.2,62.5,236.8z"/>
				</g>
				<g>
					<path class="st1" d="M61.4,239.9C61.4,239.9,61.4,240,61.4,239.9c-0.1,0.1-0.2,0.1-0.3,0.1c-0.1,0.1-0.2,0.1-0.2,0.2
						c-0.1,0-0.2,0-0.3,0c0,0,0,0,0,0c-0.2-0.1-0.4-0.3-0.4-0.6c0,0,0,0,0-0.1c0,0,0-0.1,0-0.1c0,0,0,0,0,0c0,0,0-0.1,0-0.1
						c0,0,0,0,0,0c0,0,0,0,0,0c0.1,0.1,0.1,0.3,0.2,0.4c0.1,0.2,0.3,0.3,0.6,0.3C61.1,240,61.3,239.9,61.4,239.9L61.4,239.9
						C61.5,239.9,61.5,239.9,61.4,239.9C61.4,239.9,61.4,239.9,61.4,239.9z"/>
				</g>
				<g>
					<path class="st1" d="M58.5,241.4C58.5,241.4,58.5,241.5,58.5,241.4c-0.1,0-0.1,0-0.2,0.1c0,0,0,0,0,0c0,0-0.1,0-0.1,0
						c0,0,0,0,0,0c0,0-0.1,0-0.1,0c0,0,0,0,0,0c0,0-0.1,0-0.1-0.1c-0.1,0-0.1-0.1-0.2-0.2c-0.2-0.2-0.3-0.4-0.3-0.6c0,0,0-0.1,0-0.1
						c0,0,0,0,0,0c0.1,0.1,0.2,0.2,0.3,0.3c0.4,0.3,0.8,0.2,1.2,0.1c0,0,0,0,0,0c0,0,0,0,0,0c0,0.1-0.1,0.2-0.2,0.3c0,0,0,0,0,0
						c0,0-0.1,0.1-0.1,0.1c0,0,0,0,0,0C58.6,241.4,58.5,241.4,58.5,241.4z"/>
				</g>
				<g>
					<path class="st1" d="M60.6,244.6C60.6,244.6,60.6,244.6,60.6,244.6C60.6,244.6,60.6,244.6,60.6,244.6
						C60.6,244.7,60.5,244.7,60.6,244.6c0,0.1-0.1,0.1-0.1,0.1c0,0,0,0,0,0c0,0-0.1,0.1-0.1,0.1c0,0,0,0,0,0c0,0,0,0,0,0
						c0,0,0,0,0,0c0,0,0,0,0,0c0,0-0.1,0-0.1,0c0,0,0,0,0,0c0,0-0.1,0-0.1,0c0,0,0,0,0,0c0,0,0,0,0,0c0,0-0.1,0-0.1,0
						c-0.4-0.1-0.6-0.5-0.5-0.8c0,0,0-0.1,0-0.1c0,0,0,0,0,0c0,0,0-0.1,0.1-0.1l0,0l0,0C59.7,244.4,60.1,244.7,60.6,244.6z"/>
				</g>
				<g>
					<path class="st1" d="M64.5,245.7c0.4,0.4,0.9,0.4,1.3,0.1c0,0,0,0,0,0c0,0,0,0,0,0.1c-0.1,0.2-0.2,0.3-0.3,0.4
						c-0.1,0.1-0.3,0.2-0.4,0.2c0,0-0.1,0-0.1,0c-0.1,0-0.2,0-0.3,0c-0.1,0-0.1,0-0.2-0.1c0,0-0.1,0-0.1-0.1c0,0-0.1,0-0.1-0.1
						c0,0,0,0-0.1-0.1c0,0,0,0,0,0c0,0,0,0,0,0c0,0,0,0,0-0.1c0,0,0,0,0,0c0,0,0,0,0-0.1c0,0,0,0,0,0c0,0,0,0,0-0.1c0,0,0,0,0-0.1
						c0,0,0,0,0-0.1c0,0,0,0,0-0.1c0,0,0,0,0-0.1c0,0,0,0,0-0.1c0,0,0,0,0,0c0,0,0,0,0-0.1c0,0,0,0,0,0c0-0.1,0-0.2,0-0.3
						c0,0,0,0,0,0c0,0,0-0.1,0-0.1c0,0,0,0,0,0c0,0,0-0.1,0-0.1c0,0,0,0,0,0c0,0,0-0.1,0-0.1c0,0,0,0,0,0c0,0,0-0.1,0.1-0.1
						c0,0,0,0,0,0c0,0,0-0.1,0.1-0.1c0,0,0,0,0,0l0,0C64.1,245,64.2,245.4,64.5,245.7z"/>
				</g>
				<g>
					<path class="st1" d="M66.8,247C66.8,247,66.8,246.9,66.8,247c0-0.1,0-0.2,0-0.2c0.2,0.3,0.4,0.5,0.8,0.5c0.4,0,0.7-0.3,0.7-0.7
						c0,0,0,0,0,0c0,0,0,0,0,0c0,0,0.1,0.1,0.1,0.1c0,0,0,0,0,0c0,0,0,0.1,0.1,0.2c0,0.3-0.1,0.6-0.4,0.7c-0.3,0.1-0.6,0.1-0.9,0
						c0,0,0,0,0,0C67,247.5,66.9,247.3,66.8,247z"/>
				</g>
				<g>
					<path class="st1" d="M68.2,270.9c0,0,0.1,0,0.1,0C68.3,270.8,68.2,270.9,68.2,270.9z"/>
				</g>
				<g>
					<path class="st1" d="M67.7,271c0,0,0.1,0,0.1,0C67.8,271,67.8,271,67.7,271z"/>
				</g>
				<g>
					<path class="st1" d="M67.2,271.1c0.1,0,0.1,0,0.2,0C67.3,271.1,67.3,271.1,67.2,271.1z"/>
				</g>
				<g>
					<path class="st1" d="M68.7,270.7C68.7,270.7,68.7,270.7,68.7,270.7C68.7,270.7,68.7,270.7,68.7,270.7z"/>
				</g>
				<g>
					<path class="st1" d="M66.1,271.3c0.1,0,0.2,0,0.4,0C66.3,271.3,66.2,271.3,66.1,271.3z"/>
				</g>
				<g>
					<path class="st1" d="M65,271.4c0.1,0,0.3,0,0.4,0C65.3,271.4,65.2,271.4,65,271.4z"/>
				</g>
				<g>
					<path class="st1" d="M64.4,271.4c0.2,0,0.3,0,0.5,0C64.7,271.4,64.6,271.4,64.4,271.4z"/>
				</g>
				<g>
					<path class="st1" d="M46.6,268.2C46.6,268.2,46.6,268.2,46.6,268.2c-0.2,0-0.4-0.1-0.7-0.1c0.2,0,0.3,0.1,0.5,0.1
						C46.5,268.2,46.5,268.2,46.6,268.2z"/>
				</g>
				<g>
					<path class="st1" d="M65.6,271.4c0.1,0,0.2,0,0.4,0C65.8,271.4,65.7,271.4,65.6,271.4z"/>
				</g>
				<g>
					<path class="st1" d="M70.6,269.3C70.7,269.3,70.7,269.3,70.6,269.3C70.7,269.3,70.7,269.3,70.6,269.3z"/>
				</g>
				<g>
					<path class="st1" d="M69.9,270C69.9,270,70,269.9,69.9,270C70,269.9,69.9,270,69.9,270z"/>
				</g>
				<g>
					<path class="st1" d="M69.1,270.5c0,0,0.1,0,0.1-0.1C69.1,270.5,69.1,270.5,69.1,270.5z"/>
				</g>
				<g>
					<path class="st1" d="M71,268.9C71,268.9,71,268.9,71,268.9C71,268.9,71,268.9,71,268.9z"/>
				</g>
				<g>
					<path class="st1" d="M70.3,269.7C70.3,269.6,70.3,269.6,70.3,269.7C70.3,269.6,70.3,269.6,70.3,269.7z"/>
				</g>
				<g>
					<path class="st1" d="M69.5,270.2C69.6,270.2,69.6,270.2,69.5,270.2C69.6,270.2,69.6,270.2,69.5,270.2z"/>
				</g>
				<g>
					<path class="st1" d="M45.4,268c0.2,0,0.3,0.1,0.5,0.1c-0.2,0-0.5-0.1-0.8-0.1c0.1,0,0.1,0,0.2,0C45.3,268,45.4,268,45.4,268z"
						/>
				</g>
				<g>
					<path class="st1" d="M48.8,257.3c-0.1,0-0.3,0.1-0.4,0.1C48.6,257.4,48.7,257.3,48.8,257.3z"/>
				</g>
				<g>
					<path class="st1" d="M49.5,257c0.1,0,0.3-0.1,0.4-0.1C49.8,256.9,49.6,257,49.5,257z"/>
				</g>
				<g>
					<path class="st1" d="M47.7,257.7c0,0-0.1,0-0.1,0c1,0.3,2.1,0.5,3.1,0.6c1,0.1,2-0.1,3.1-0.2c0.9-0.1,2.4-0.3,3-1.3
						c0.1-0.1,0.2-0.1,0.2,0c0.2,1,0.6,2.2,0.5,3.2c0,0.5-0.3,0.9-0.4,1.4c-0.2,0.6-0.3,1.1-0.2,1.7c0.1,0.8,0.5,1.3,1.3,1.4
						c0.6,0.1,1.3-0.1,1.9-0.1c0.8-0.1,1.3,0,2,0.3c0.5,0.2,0.9,0.3,1.4,0.2c0.5-0.1,1.1-0.4,1.6-0.6c0.7-0.4,1.5-0.8,2.4-0.8
						c0.7,0.1,1.3,0.6,1.8,1c0.1,0.1,0.3,0.2,0.4,0.3c-0.2,1.3-0.7,2.5-1.1,3.7c-0.2,0.8-0.5,1.6-1.1,2.3c-0.1,0.1-0.2,0.2-0.3,0.3
						c-0.2,0-0.4,0.1-0.7,0.1c-0.5-0.2-1.1-0.4-1.6-0.7c-1.1-0.6-2-1.6-2.8-2.5c-1-1.1-2.1-2.3-3.6-2.7c-1.3-0.3-2.6-0.2-4-0.3
						c-1.2-0.1-2.4-0.3-3.6-0.4c-1-0.1-2,0-3.1,0.3c-0.9,0.3-1.8,0.7-2.7,0.9c-0.9,0.3-1.9,0.4-2.9,0.5c-0.4,0-0.8,0-1.2,0
						c0.4,0.3,0.9,0.6,1.4,0.8c0,0,0,0,0,0c0,0,0,0,0,0c0.1,0.1,0.3,0.1,0.5,0.2c0,0,0.1,0,0.1,0c0.2,0.1,0.3,0.1,0.5,0.2
						c0,0,0,0,0,0c0.2,0,0.3,0.1,0.5,0.1c0,0,0.1,0,0.1,0c0.2,0,0.4,0.1,0.5,0.1c0,0,0,0,0,0c0.1,0,0.2,0,0.4,0.1
						c-2.2-0.4-4.5-1.2-5.2-3.4c-1-2.9,1.8-4.8,4.1-5.6c0.3-0.1,0.6-0.2,1-0.3c0.4-0.2,0.9-0.3,1.3-0.5
						C46.8,258,47.3,257.8,47.7,257.7z"/>
				</g>
				<g>
					<path class="st1" d="M50.9,256.5c-0.1,0-0.2,0.1-0.3,0.1C50.7,256.5,50.8,256.5,50.9,256.5z"/>
				</g>
				<g>
					<path class="st1" d="M46.4,268.2c-0.2,0-0.3-0.1-0.5-0.1c0,0,0,0,0,0c-0.2,0-0.3-0.1-0.5-0.1C45.7,268,46.1,268.1,46.4,268.2z"
						/>
				</g>
				<g>
					<path class="st1" d="M47,268.2c-0.1,0-0.2,0-0.4-0.1c0,0,0,0,0,0C46.7,268.2,46.9,268.2,47,268.2z"/>
				</g>
				<g>
					<path class="st1" d="M45.3,268c-0.1,0-0.1,0-0.2,0c0,0,0,0,0,0c-0.1,0-0.2,0-0.4-0.1C44.9,267.9,45.1,267.9,45.3,268z"/>
				</g>
				<g>
					<path class="st1" d="M43.1,267.4c0.2,0.1,0.3,0.1,0.5,0.2C43.4,267.5,43.3,267.5,43.1,267.4z"/>
				</g>
				<g>
					<path class="st1" d="M57.9,267.7c-0.9-0.1-1.8-0.3-2.7-0.6c-0.9-0.3-1.8-0.7-2.8-1c-1-0.2-2.1-0.2-3.2-0.1
						c-2.1,0.2-4,1-6.1,1.1c-0.2,0-0.4,0-0.6,0c-0.5-0.2-1-0.5-1.4-0.8c0.4,0,0.8,0,1.2,0c1,0,1.9-0.2,2.9-0.5
						c0.9-0.2,1.8-0.7,2.7-0.9c1-0.3,2-0.4,3.1-0.3c1.2,0.1,2.4,0.4,3.6,0.4c1.3,0.1,2.7-0.1,4,0.3c1.5,0.4,2.6,1.5,3.6,2.7
						c0.8,0.9,1.7,1.9,2.8,2.5c0.5,0.3,1,0.5,1.6,0.7c0,0,0,0,0,0c0,0,0,0-0.1,0c-0.1,0-0.2,0-0.4,0c-0.1,0-0.1,0-0.2,0
						c-0.1,0-0.2,0-0.4,0c0,0-0.1,0-0.1,0c-0.1,0-0.3,0-0.4,0c0,0-0.1,0-0.1,0c-0.2,0-0.3,0-0.5,0c-0.1,0-0.1,0-0.2,0
						c-1.2-0.9-2.2-2-3.5-2.9C59.9,267.9,58.9,267.8,57.9,267.7z"/>
				</g>
				<g>
					<path class="st1" d="M43.6,267.6c0.2,0,0.3,0.1,0.5,0.1C44,267.7,43.8,267.6,43.6,267.6z"/>
				</g>
				<g>
					<path class="st1" d="M44.2,267.7c0.2,0,0.4,0.1,0.5,0.1C44.6,267.8,44.4,267.8,44.2,267.7z"/>
				</g>
				<g>
					<path class="st1" d="M59.7,271c0.2,0,0.4,0,0.6,0C60.1,271,59.9,271,59.7,271z"/>
				</g>
				<g>
					<path class="st1" d="M60.5,271c0.1,0,0.3,0,0.4,0C60.8,271.1,60.6,271.1,60.5,271z"/>
				</g>
				<g>
					<path class="st1" d="M42.5,267.2c0.1,0.1,0.3,0.1,0.5,0.2C42.8,267.3,42.7,267.2,42.5,267.2z"/>
				</g>
				<g>
					<path class="st1" d="M63.7,271.3c0.1,0,0.2,0,0.4,0C64,271.4,63.8,271.4,63.7,271.3z"/>
				</g>
				<g>
					<path class="st1" d="M63.1,271.3c0.1,0,0.3,0,0.4,0C63.4,271.3,63.3,271.3,63.1,271.3z"/>
				</g>
				<g>
					<path class="st1" d="M61.6,271.1c0.5,0,1,0.1,1.5,0.2C62.6,271.2,62.1,271.2,61.6,271.1z"/>
				</g>
				<g>
					<path class="st1" d="M61.1,271.1c0.1,0,0.3,0,0.4,0C61.3,271.1,61.2,271.1,61.1,271.1z"/>
				</g>
				<g>
					<path class="st1" d="M46.4,268.2c-0.3-0.1-0.7-0.1-1-0.2c0,0-0.1,0-0.1,0c-0.2,0-0.3-0.1-0.5-0.1c0,0,0,0,0,0
						c-0.2,0-0.4-0.1-0.5-0.1c0,0-0.1,0-0.1,0c-0.2,0-0.3-0.1-0.5-0.1c0,0,0,0,0,0c-0.2-0.1-0.3-0.1-0.5-0.2c0,0-0.1,0-0.1,0
						c-0.2-0.1-0.3-0.1-0.5-0.2c0,0,0,0,0,0c0,0,0,0,0,0c0.2,0,0.4,0,0.6,0c2.1-0.1,4.1-0.9,6.1-1.1c1-0.1,2.1-0.2,3.2,0.1
						c1,0.2,1.9,0.6,2.8,1c0.9,0.3,1.8,0.5,2.7,0.6c1,0.1,2,0.3,2.9,0.9c1.2,0.8,2.3,2,3.5,2.9c0,0,0,0,0,0c-0.1,0-0.1,0-0.2,0
						c-0.1,0-0.2,0-0.4,0c-0.1,0-0.1,0-0.2,0c-0.1,0-0.3,0-0.4,0c0,0-0.1,0-0.1,0c-0.5,0-1-0.1-1.5-0.2c0,0-0.1,0-0.1,0
						c-0.1,0-0.3,0-0.4,0c-0.1,0-0.1,0-0.2,0c-0.1,0-0.3,0-0.4,0c-0.1,0-0.1,0-0.2,0c-0.2,0-0.4,0-0.6,0c-1.6,0-3.1,0.6-4.7,0.4
						c-1.5-0.2-2.7-1.1-3.9-1.9c-1.3-0.8-2.6-1-4.1-1.3c-0.1,0-0.3,0-0.4-0.1C46.5,268.2,46.5,268.2,46.4,268.2z"/>
				</g>
				<g>
					<path class="st1" d="M72,266.6c0-0.1,0-0.1,0-0.2C72,266.5,72,266.6,72,266.6z"/>
				</g>
				<g>
					<path class="st1" d="M72,264.2c0-0.1,0-0.2,0-0.2C71.9,264,71.9,264.1,72,264.2z"/>
				</g>
				<g>
					<path class="st1" d="M71.9,263.7c0-0.1,0-0.2-0.1-0.2C71.8,263.6,71.9,263.6,71.9,263.7z"/>
				</g>
				<g>
					<path class="st1" d="M71.9,267.1c0-0.1,0-0.1,0-0.2C71.9,266.9,71.9,267,71.9,267.1z"/>
				</g>
				<g>
					<path class="st1" d="M72.1,265.5c0-0.1,0-0.1,0-0.2C72.1,265.4,72.1,265.4,72.1,265.5z"/>
				</g>
				<g>
					<path class="st1" d="M71.8,267.5c0-0.1,0-0.1,0.1-0.2C71.8,267.4,71.8,267.4,71.8,267.5z"/>
				</g>
				<g>
					<path class="st1" d="M72,264.6c0-0.1,0-0.2,0-0.2C72,264.5,72,264.5,72,264.6z"/>
				</g>
				<g>
					<path class="st1" d="M72.1,265.1c0-0.1,0-0.1,0-0.2C72.1,264.9,72.1,265,72.1,265.1z"/>
				</g>
				<g>
					<path class="st1" d="M72.1,266.2c0-0.1,0-0.2,0-0.2C72.1,266,72.1,266.1,72.1,266.2z"/>
				</g>
				<g>
					<path class="st1" d="M71.6,267.9C71.6,267.9,71.6,267.9,71.6,267.9c0,0,0-0.1,0.1-0.1C71.6,267.8,71.6,267.8,71.6,267.9z"/>
				</g>
				<g>
					<path class="st1" d="M71.1,261.5c-0.1-0.1-0.1-0.3-0.2-0.4C71,261.2,71.1,261.4,71.1,261.5z"/>
				</g>
				<g>
					<path class="st1" d="M71.5,262.4c0-0.1-0.1-0.2-0.1-0.3C71.4,262.2,71.4,262.3,71.5,262.4z"/>
				</g>
				<g>
					<path class="st1" d="M71.3,261.9c0-0.1-0.1-0.2-0.1-0.3C71.2,261.8,71.3,261.8,71.3,261.9z"/>
				</g>
				<g>
					<path class="st1" d="M71.6,262.8c0-0.1-0.1-0.2-0.1-0.2C71.6,262.7,71.6,262.7,71.6,262.8z"/>
				</g>
				<g>
					<path class="st1" d="M71.7,263c0,0,0,0.1,0,0.1c0,0,0,0.1,0,0.1C71.7,263.2,71.7,263.1,71.7,263z"/>
				</g>
				<g>
					<path class="st1" d="M48.8,257.3c0.2-0.1,0.4-0.2,0.7-0.2c0.1,0,0.3-0.1,0.4-0.1c0.2-0.1,0.5-0.2,0.7-0.3
						c0.1,0,0.2-0.1,0.3-0.1c0.3-0.1,0.7-0.3,1-0.4c1.3-0.6,2.5-1.2,3.7-1.9c0,0,0.1,0,0.1-0.1c0,0,0,0,0,0c0.3,0,0.6,0,0.9,0
						c0.7,0,1.5-0.3,2.1-0.6c0.7-0.4,1.3-0.8,2-1.1c0,0,0.1,0,0.1,0c0.4,0.6,0.2,0.9,0,1.5c-0.2,0.5-0.1,0.9-0.1,1.4
						c0,0.4,0,0.8-0.1,1.2c-0.1,0.4-0.3,0.8-0.3,1.2c0,0.4,0.2,0.8,0.4,1.1c0.3,0.5,0.8,1,1.1,1.6c1.1-0.9,1.7-2.4,2.8-3.4
						c0.3-0.3,0.7-0.6,1.2-0.3c0.6,0.3,0.9,1,1.3,1.5c0.4,0.7,0.8,1.4,1.3,2c0.5,0.7,1,1.5,1.3,2.3c0.2,0.8,0.2,1.6,0.1,2.4
						c-0.1-0.1-0.3-0.2-0.4-0.3c-0.5-0.4-1.1-1-1.8-1c-0.8-0.1-1.6,0.4-2.4,0.8c-0.5,0.3-1,0.5-1.6,0.6c-0.5,0.1-0.9,0-1.4-0.2
						c-0.7-0.3-1.3-0.4-2-0.3c-0.6,0.1-1.3,0.2-1.9,0.1c-0.8-0.1-1.2-0.6-1.3-1.4c-0.1-0.6,0-1.2,0.2-1.7c0.2-0.4,0.4-0.9,0.4-1.4
						c0.1-1.1-0.3-2.2-0.5-3.2c0-0.1-0.1-0.1-0.2,0c-0.5,1-2,1.1-3,1.3c-1,0.1-2,0.3-3.1,0.2c-1-0.1-2.1-0.3-3.1-0.6
						c0,0,0.1,0,0.1,0c0.2-0.1,0.5-0.2,0.7-0.2C48.6,257.4,48.7,257.3,48.8,257.3z"/>
				</g>
				<g>
					<path class="st1" d="M68.6,268.6c0.4-1.2,0.9-2.5,1.1-3.7c0.1-0.8,0.1-1.6-0.1-2.4c-0.3-0.9-0.8-1.6-1.3-2.3
						c-0.5-0.6-0.9-1.3-1.3-2c-0.3-0.5-0.7-1.2-1.3-1.5c-0.5-0.2-0.8,0-1.2,0.3c-1.1,1-1.7,2.5-2.8,3.4c-0.3-0.6-0.7-1-1.1-1.6
						c-0.2-0.3-0.4-0.7-0.4-1.1c0-0.4,0.2-0.8,0.3-1.2c0.1-0.4,0.2-0.8,0.1-1.2c0-0.5-0.1-1,0.1-1.4c0.3-0.6,0.4-0.9,0-1.5
						c0,0-0.1,0-0.1,0c-0.7,0.3-1.3,0.7-2,1.1c-0.7,0.4-1.4,0.6-2.1,0.6c-0.3,0-0.6,0-0.9,0c0,0,0,0,0,0c0.3-0.2,0.6-0.4,0.8-0.6
						c0.8-0.6,1.6-1.3,2.4-1.9c0.6-0.4,1.2-0.8,1.8-1.1c0.6-0.2,1.1-0.4,1.7-0.3c0.3,0,0.5,0.1,0.8,0.2c0,0,0.1,0,0.1,0c0,0,0,0,0,0
						c0.3,0.1,0.6,0.3,0.9,0.5c0.2,0.1,0.4,0.1,0.6,0c0.1,0,0.1,0,0.2,0c0,0,0,0,0.1,0c0.5,0,1,0.1,1.4,0.4c0.3,0.2,0.5,0.4,0.7,0.7
						c0.5,0.7,0.8,1.5,1.1,2.3c0.2,0.5,0.4,1,0.7,1.5c0.1,0.3,0.2,0.6,0.4,0.9c0.6,1.4,1.1,2.9,1.5,4.3c0.1,0.1,0.1,0.3,0.2,0.4
						c0,0,0,0.1,0.1,0.1c0,0.1,0.1,0.2,0.1,0.3c0,0.1,0,0.1,0.1,0.2c0,0.1,0.1,0.2,0.1,0.3c0,0.1,0,0.1,0.1,0.2
						c0,0.1,0.1,0.2,0.1,0.2c0,0.1,0,0.1,0.1,0.2c0,0.1,0,0.2,0.1,0.2c0,0.1,0,0.1,0.1,0.2c0,0.1,0,0.2,0.1,0.2c0,0.1,0,0.1,0,0.2
						c0,0.1,0,0.2,0,0.2c0,0.1,0,0.2,0,0.2c0,0.1,0,0.2,0,0.2c0,0.1,0,0.2,0,0.2c0,0.1,0,0.1,0,0.2c0,0.1,0,0.2,0,0.2
						c0,0.1,0,0.1,0,0.2c0,0.1,0,0.3,0,0.4c0,0.1,0,0.2,0,0.2c0,0.1,0,0.2,0,0.2c0,0.1,0,0.1,0,0.2c0,0.1,0,0.2-0.1,0.2
						c0,0.1,0,0.1,0,0.2c0,0.1,0,0.2-0.1,0.2c0,0.1,0,0.1-0.1,0.2c0,0.1-0.1,0.2-0.1,0.2c0,0,0,0.1-0.1,0.1
						c-0.1,0.2-0.2,0.4-0.3,0.6c-0.1,0.1-0.2,0.3-0.3,0.4c0,0,0,0.1-0.1,0.1c-0.1,0.1-0.2,0.2-0.3,0.3c0,0,0,0,0,0
						c-0.1,0.1-0.2,0.2-0.3,0.3c0,0,0,0-0.1,0.1c-0.1,0.1-0.2,0.2-0.3,0.3c0,0-0.1,0-0.1,0.1c-0.1,0.1-0.2,0.1-0.3,0.2
						c0,0-0.1,0-0.1,0.1c-0.1,0.1-0.2,0.1-0.4,0.2c0,0-0.1,0-0.1,0.1c-0.1,0.1-0.2,0.1-0.3,0.1c0,0-0.1,0-0.1,0
						c-0.1,0.1-0.2,0.1-0.4,0.1c0,0-0.1,0-0.1,0c-0.1,0-0.2,0.1-0.3,0.1c0,0-0.1,0-0.1,0c-0.1,0-0.2,0.1-0.3,0.1c-0.1,0-0.1,0-0.2,0
						c0,0,0,0-0.1,0c0,0,0,0,0,0c0.1-0.1,0.2-0.2,0.3-0.3C68.1,270.3,68.3,269.4,68.6,268.6z"/>
				</g>
			</g>
		</g>
		<rect x="143.9" y="35.3" transform="matrix(0.9804 -0.1972 0.1972 0.9804 -4.539 29.82)" class="st1" width="7.2" height="4.7"/>
		
			<rect x="381.8" y="208.1" transform="matrix(6.123234e-17 -1 1 6.123234e-17 175.0138 595.9037)" class="st1" width="7.2" height="4.7"/>
	</g>
</g>
</svg>
